<svg version="1.1" xmlns="http://www.w3.org/2000/svg" xmlns:xlink="http://www.w3.org/1999/xlink" width="374" height="990" viewBox="0 0 374 990"><defs/><g transform="matrix(1,0,0,1,0,0)"><g><g><g><path fill="none" stroke="#d3d3d3" paint-order="fill stroke markers" d=" M 0 0 L 1200 0" stroke-miterlimit="10" stroke-opacity="0.8" stroke-dasharray="5"/></g><g><path fill="none" stroke="#d3d3d3" paint-order="fill stroke markers" d=" M 0 0 L 0 800" stroke-miterlimit="10" stroke-opacity="0.8" stroke-dasharray="5"/></g></g><g id="_A758456F-E67F-467D-B026-4FE8D2D54AB8" transform="matrix(1,0,0,1,172,50)"><g><path fill="none" stroke="none"/></g><g transform="matrix(1,0,0,1,0,0)"><g transform="matrix(1,0,0,1,25,25)"><path fill="#ffffff" stroke="none" id="_A758456F-E67F-467D-B026-4FE8D2D54AB8?shapeType=BACKGROUND" paint-order="stroke fill markers" d=" M 25 0 A 25 25 0 1 0 24.99998750000104 0.02499999583334189 Z"/></g><g transform="matrix(1,0,0,1,25,25)"><path fill="none" stroke="#d5d5d5" id="_A758456F-E67F-467D-B026-4FE8D2D54AB8?shapeType=BORDER&amp;renderType=STROKE" paint-order="fill stroke markers" d=" M 25 0 A 25 25 0 1 0 24.99998750000104 0.02499999583334189 Z" stroke-miterlimit="10" stroke-width="2" stroke-dasharray=""/></g></g><g transform="matrix(1,0,0,1,7.24609375,17.5)"><text fill="#000000" stroke="none" font-family="Open Sans" font-size="12pt" font-style="normal" font-weight="normal" text-decoration="normal" x="17.75390625" y="12" text-anchor="middle" dominant-baseline="alphabetic" fill-opacity="0.4">Start</text></g></g><g transform="matrix(1,0,0,1,172,50)"/><g id="_196024B0-A132-49A9-A38D-1171FAE39312" transform="matrix(1,0,0,1,172.5,893)"><g><path fill="none" stroke="none"/></g><g transform="matrix(1,0,0,1,0,0)"><path fill="#ffffff" stroke="none" id="_196024B0-A132-49A9-A38D-1171FAE39312?shapeType=BACKGROUND" paint-order="stroke fill markers" d=" M 0 0 L 49 0 L 49 47 L 0 47 L 0 0 Z Z"/></g><g transform="matrix(1,0,0,1,0,0)"><path fill="none" stroke="#d5d5d5" id="_196024B0-A132-49A9-A38D-1171FAE39312?shapeType=BORDER&amp;renderType=STROKE" paint-order="fill stroke markers" d=" M 0 0 L 49 0 L 49 47 L 0 47 L 0 0 Z Z" stroke-miterlimit="10" stroke-width="2" stroke-dasharray=""/></g><g transform="matrix(1,0,0,1,10.23828125,16)"><text fill="#000000" stroke="none" font-family="Open Sans" font-size="12pt" font-style="normal" font-weight="normal" text-decoration="normal" x="14.26171875" y="12" text-anchor="middle" dominant-baseline="alphabetic" fill-opacity="0.4">End</text></g></g><g transform="matrix(1,0,0,1,172.5,893)"/><g id="_E34C4600-F269-489C-AFA2-CA3E7125BEBA" transform="matrix(1,0,0,1,70,185)"><g><path fill="none" stroke="none"/></g><g transform="matrix(1,0,0,1,0,0)"><path fill="#ffffff" stroke="none" id="_E34C4600-F269-489C-AFA2-CA3E7125BEBA?shapeType=BACKGROUND" paint-order="stroke fill markers" d=" M 5 0 L 249 0 L 249 0 A 5 5 0 0 1 254 5 L 254 87 L 254 87 A 5 5 0 0 1 249 92 L 5 92 L 5 92 A 5 5 0 0 1 0 87 L 0 5 L 0 5.000000000000001 A 5 5 0 0 1 4.999999999999999 0 Z"/></g><g transform="matrix(1,0,0,1,0,0)"><path fill="none" stroke="#d5d5d5" id="_E34C4600-F269-489C-AFA2-CA3E7125BEBA?shapeType=BORDER&amp;renderType=STROKE" paint-order="fill stroke markers" d=" M 10 0 L 244 0 L 244 0 A 10 10 0 0 1 254 10 L 254 82 L 254 82 A 10 10 0 0 1 244 92 L 10 92 L 10 92 A 10 10 0 0 1 0 82 L 0 10 L 0 10.000000000000002 A 10 10 0 0 1 9.999999999999998 0 Z" stroke-miterlimit="10" stroke-width="2" stroke-dasharray=""/></g><g transform="matrix(1,0,0,1,45,46)"><path fill="none" stroke="#d5d5d5" id="_E34C4600-F269-489C-AFA2-CA3E7125BEBA_state-inner-circle" paint-order="fill stroke markers" d=" M 25 0 A 25 25 0 1 0 24.99998750000104 0.02499999583334189 Z" stroke-miterlimit="10" stroke-width="2" stroke-dasharray=""/></g><g transform="matrix(1,0,0,1,45,46)"><path fill="#f4c145" stroke="none" id="_E34C4600-F269-489C-AFA2-CA3E7125BEBA_state-inner-circle-border" paint-order="stroke fill markers" d=" M 25 0 A 25 25 0 1 0 24.99998750000104 0.02499999583334189 Z"/></g><g><g transform="matrix(0.35,0,0,0.35,33.8,34.45)"><g transform="matrix(1,0,0,1,0,0)"><path fill="#ffffff" stroke="#ffffff" id="_E34C4600-F269-489C-AFA2-CA3E7125BEBA_state__Mts6__bQLZ" paint-order="fill stroke markers" d=" M 0 0 M 24 4 L 24 8 L 40 8 L 40 4 C 40 1.79 41.79 0 44 0 C 46.21 0 48 1.79 48 4 L 48 8 L 54 8 C 57.31 8 60 10.69 60 14 L 60 20 L 4 20 L 4 14 C 4 10.69 6.6899999999999995 8 10 8 L 16 8 L 16 4 C 16 1.79 17.79 0 20 0 C 22.21 0 24 1.79 24 4 Z M 0 0 M 4 24 L 60 24 L 60 58 C 60 61.31 57.31 64 54 64 L 10 64 C 6.6899999999999995 64 4 61.31 4 58 L 4 24 Z M 0 0 M 14 32 C 12.9 32 12 32.9 12 34 L 12 46 C 12 47.1 12.9 48 14 48 L 26 48 C 27.1 48 28 47.1 28 46 L 28 34 C 28 32.9 27.1 32 26 32 L 14 32 Z" stroke-miterlimit="10" stroke-width="3" stroke-dasharray=""/></g></g></g><g transform="matrix(1,0,0,1,85,38.5)"><text fill="#000000" stroke="none" font-family="Open Sans" font-size="12pt" font-style="normal" font-weight="normal" text-decoration="normal" x="40.51171875" y="12" text-anchor="middle" dominant-baseline="alphabetic">Start Event</text></g></g><g transform="matrix(1,0,0,1,70,185)"/><g id="_EF84E07C-2849-4974-8411-F01EE2A92F76" transform="matrix(1,0,0,1,70,362)"><g><path fill="none" stroke="none"/></g><g transform="matrix(1,0,0,1,0,0)"><path fill="#ffffff" stroke="none" id="_EF84E07C-2849-4974-8411-F01EE2A92F76?shapeType=BACKGROUND" paint-order="stroke fill markers" d=" M 5 0 L 249 0 L 249 0 A 5 5 0 0 1 254 5 L 254 87 L 254 87 A 5 5 0 0 1 249 92 L 5 92 L 5 92 A 5 5 0 0 1 0 87 L 0 5 L 0 5.000000000000001 A 5 5 0 0 1 4.999999999999999 0 Z"/></g><g transform="matrix(1,0,0,1,0,0)"><path fill="none" stroke="rgb(213,213,213)" id="_EF84E07C-2849-4974-8411-F01EE2A92F76?shapeType=BORDER&amp;renderType=STROKE" paint-order="fill stroke markers" d=" M 10 0 L 244 0 L 244 0 A 10 10 0 0 1 254 10 L 254 82 L 254 82 A 10 10 0 0 1 244 92 L 10 92 L 10 92 A 10 10 0 0 1 0 82 L 0 10 L 0 10.000000000000002 A 10 10 0 0 1 9.999999999999998 0 Z" stroke-miterlimit="10" stroke-width="2" stroke-dasharray=""/></g><g transform="matrix(1,0,0,1,45,46)"><path fill="none" stroke="#d5d5d5" id="_EF84E07C-2849-4974-8411-F01EE2A92F76_state-inner-circle" paint-order="fill stroke markers" d=" M 25 0 A 25 25 0 1 0 24.99998750000104 0.02499999583334189 Z" stroke-miterlimit="10" stroke-width="2" stroke-dasharray=""/></g><g transform="matrix(1,0,0,1,45,46)"><path fill="#0066cc" stroke="none" id="_EF84E07C-2849-4974-8411-F01EE2A92F76_state-inner-circle-border" paint-order="stroke fill markers" d=" M 25 0 A 25 25 0 1 0 24.99998750000104 0.02499999583334189 Z"/></g><g><g transform="matrix(0.35,0,0,0.35,33.8,34.45)"><g transform="matrix(1,0,0,1,0,0)"><path fill="#ffffff" stroke="#ffffff" id="_EF84E07C-2849-4974-8411-F01EE2A92F76_state__9lPi__EKpD" paint-order="fill stroke markers" d=" M 0 0 M 61.99 20.83 C 62.4 21.9 62.050000000000004 23.119999999999997 61.2 23.9 L 55.790000000000006 28.83 C 55.93000000000001 29.869999999999997 56.00000000000001 30.93 56.00000000000001 32 C 56.00000000000001 33.07 55.92000000000001 34.14 55.790000000000006 35.17 L 61.2 40.09 C 62.050000000000004 40.88 62.400000000000006 42.09 61.99 43.17 C 61.440000000000005 44.660000000000004 60.78 46.09 60.03 47.46 L 59.44 48.47 C 58.61 49.85 57.69 51.15 56.68 52.379999999999995 C 55.93 53.269999999999996 54.72 53.58 53.62 53.23 L 46.66 51.01 C 44.98 52.3 43.019999999999996 53.37 41.16 54.199999999999996 L 39.599999999999994 61.339999999999996 C 39.349999999999994 62.459999999999994 38.48 63.26 37.31999999999999 63.559999999999995 C 35.599999999999994 63.849999999999994 33.81999999999999 63.99999999999999 31.89999999999999 63.99999999999999 C 30.199999999999992 63.99999999999999 28.41999999999999 63.849999999999994 26.699999999999992 63.559999999999995 C 25.549999999999994 63.26 24.679999999999993 62.459999999999994 24.429999999999993 61.339999999999996 L 22.869999999999994 54.199999999999996 C 20.889999999999993 53.37 19.039999999999992 52.3 17.369999999999994 51.01 L 10.409999999999993 53.23 C 9.309999999999993 53.58 8.089999999999993 53.269999999999996 7.3499999999999925 52.379999999999995 C 6.339999999999993 51.13999999999999 5.409999999999993 49.839999999999996 4.589999999999993 48.47 L 3.999999999999993 47.46 C 3.239999999999993 46.1 2.579999999999993 44.660000000000004 2.029999999999993 43.17 C 1.6299999999999932 42.09 1.969999999999993 40.88 2.819999999999993 40.09 L 8.229999999999993 35.17 C 8.089999999999993 34.13 8.019999999999992 33.07 8.019999999999992 32 C 8.019999999999992 30.93 8.089999999999993 29.86 8.229999999999993 28.83 L 2.819999999999993 23.9 C 1.9599999999999933 23.11 1.6199999999999932 21.91 2.029999999999993 20.83 C 2.579999999999993 19.34 3.249999999999993 17.9 3.999999999999993 16.54 L 4.579999999999993 15.53 C 5.409999999999993 14.149999999999999 6.329999999999993 12.86 7.3499999999999925 11.62 C 8.089999999999993 10.729999999999999 9.309999999999992 10.42 10.409999999999993 10.77 L 17.369999999999994 12.99 C 19.039999999999992 11.7 20.889999999999993 10.620000000000001 22.869999999999994 9.81 L 24.429999999999993 2.670000000000001 C 24.679999999999993 1.540000000000001 25.549999999999994 0.6300000000000008 26.699999999999992 0.44000000000000083 C 28.429999999999993 0.15000000000000085 30.199999999999992 8.326672684688674e-16 32.00999999999999 8.326672684688674e-16 C 33.81999999999999 8.326672684688674e-16 35.599999999999994 0.15000000000000083 37.31999999999999 0.44000000000000083 C 38.46999999999999 0.6300000000000008 39.349999999999994 1.530000000000001 39.599999999999994 2.670000000000001 L 41.16 9.81 C 43.019999999999996 10.63 44.98 11.700000000000001 46.66 12.99 L 53.62 10.77 C 54.72 10.42 55.93 10.73 56.68 11.62 C 57.69 12.85 58.62 14.149999999999999 59.44 15.53 L 60.03 16.54 C 60.78 17.9 61.44 19.34 61.99 20.83 L 61.99 20.83 Z M 0 0 M 32 42 C 37.53 42 42 37.53 42 31.89 C 42 26.25 37.53 21.89 32 21.89 C 26.47 21.89 22 26.48 22 31.89 C 22 37.3 26.48 42 32 42 Z" stroke-miterlimit="10" stroke-width="3" stroke-dasharray=""/></g></g></g><g transform="matrix(1,0,0,1,85,38.5)"><text fill="#000000" stroke="none" font-family="Open Sans" font-size="12pt" font-style="normal" font-weight="normal" text-decoration="normal" x="54.015625" y="12" text-anchor="middle" dominant-baseline="alphabetic">Good Morning</text></g></g><g transform="matrix(1,0,0,1,70,362)"/><g id="_4D164CA4-59B6-483D-8545-B20D96B712B7" transform="matrix(1,0,0,1,70,539)"><g><path fill="none" stroke="none"/></g><g transform="matrix(1,0,0,1,0,0)"><path fill="#ffffff" stroke="none" id="_4D164CA4-59B6-483D-8545-B20D96B712B7?shapeType=BACKGROUND" paint-order="stroke fill markers" d=" M 5 0 L 249 0 L 249 0 A 5 5 0 0 1 254 5 L 254 87 L 254 87 A 5 5 0 0 1 249 92 L 5 92 L 5 92 A 5 5 0 0 1 0 87 L 0 5 L 0 5.000000000000001 A 5 5 0 0 1 4.999999999999999 0 Z"/></g><g transform="matrix(1,0,0,1,0,0)"><path fill="none" stroke="rgb(213,213,213)" id="_4D164CA4-59B6-483D-8545-B20D96B712B7?shapeType=BORDER&amp;renderType=STROKE" paint-order="fill stroke markers" d=" M 10 0 L 244 0 L 244 0 A 10 10 0 0 1 254 10 L 254 82 L 254 82 A 10 10 0 0 1 244 92 L 10 92 L 10 92 A 10 10 0 0 1 0 82 L 0 10 L 0 10.000000000000002 A 10 10 0 0 1 9.999999999999998 0 Z" stroke-miterlimit="10" stroke-width="2" stroke-dasharray=""/></g><g transform="matrix(1,0,0,1,45,46)"><path fill="none" stroke="#d5d5d5" id="_4D164CA4-59B6-483D-8545-B20D96B712B7_state-inner-circle" paint-order="fill stroke markers" d=" M 25 0 A 25 25 0 1 0 24.99998750000104 0.02499999583334189 Z" stroke-miterlimit="10" stroke-width="2" stroke-dasharray=""/></g><g transform="matrix(1,0,0,1,45,46)"><path fill="#f4c145" stroke="none" id="_4D164CA4-59B6-483D-8545-B20D96B712B7_state-inner-circle-border" paint-order="stroke fill markers" d=" M 25 0 A 25 25 0 1 0 24.99998750000104 0.02499999583334189 Z"/></g><g><g transform="matrix(0.35,0,0,0.35,33.8,34.45)"><g transform="matrix(1,0,0,1,0,0)"><path fill="#ffffff" stroke="#ffffff" id="_4D164CA4-59B6-483D-8545-B20D96B712B7_state__Mts6__bQLZ" paint-order="fill stroke markers" d=" M 0 0 M 24 4 L 24 8 L 40 8 L 40 4 C 40 1.79 41.79 0 44 0 C 46.21 0 48 1.79 48 4 L 48 8 L 54 8 C 57.31 8 60 10.69 60 14 L 60 20 L 4 20 L 4 14 C 4 10.69 6.6899999999999995 8 10 8 L 16 8 L 16 4 C 16 1.79 17.79 0 20 0 C 22.21 0 24 1.79 24 4 Z M 0 0 M 4 24 L 60 24 L 60 58 C 60 61.31 57.31 64 54 64 L 10 64 C 6.6899999999999995 64 4 61.31 4 58 L 4 24 Z M 0 0 M 14 32 C 12.9 32 12 32.9 12 34 L 12 46 C 12 47.1 12.9 48 14 48 L 26 48 C 27.1 48 28 47.1 28 46 L 28 34 C 28 32.9 27.1 32 26 32 L 14 32 Z" stroke-miterlimit="10" stroke-width="3" stroke-dasharray=""/></g></g></g><g transform="matrix(1,0,0,1,85,38.5)"><text fill="#000000" stroke="none" font-family="Open Sans" font-size="12pt" font-style="normal" font-weight="normal" text-decoration="normal" x="39.30078125" y="12" text-anchor="middle" dominant-baseline="alphabetic">Wait Event</text></g></g><g transform="matrix(1,0,0,1,70,539)"/><g id="_5E372D96-9267-4634-B3F8-CA872397BB16" transform="matrix(1,0,0,1,70,716)"><g><path fill="none" stroke="none"/></g><g transform="matrix(1,0,0,1,0,0)"><path fill="#ffffff" stroke="none" id="_5E372D96-9267-4634-B3F8-CA872397BB16?shapeType=BACKGROUND" paint-order="stroke fill markers" d=" M 5 0 L 249 0 L 249 0 A 5 5 0 0 1 254 5 L 254 87 L 254 87 A 5 5 0 0 1 249 92 L 5 92 L 5 92 A 5 5 0 0 1 0 87 L 0 5 L 0 5.000000000000001 A 5 5 0 0 1 4.999999999999999 0 Z"/></g><g transform="matrix(1,0,0,1,0,0)"><path fill="none" stroke="rgb(0,136,206)" id="_5E372D96-9267-4634-B3F8-CA872397BB16?shapeType=BORDER&amp;renderType=STROKE" paint-order="fill stroke markers" d=" M 10 0 L 244 0 L 244 0 A 10 10 0 0 1 254 10 L 254 82 L 254 82 A 10 10 0 0 1 244 92 L 10 92 L 10 92 A 10 10 0 0 1 0 82 L 0 10 L 0 10.000000000000002 A 10 10 0 0 1 9.999999999999998 0 Z" stroke-miterlimit="10" stroke-width="2" stroke-dasharray=""/></g><g transform="matrix(1,0,0,1,45,46)"><path fill="none" stroke="#d5d5d5" id="_5E372D96-9267-4634-B3F8-CA872397BB16_state-inner-circle" paint-order="fill stroke markers" d=" M 25 0 A 25 25 0 1 0 24.99998750000104 0.02499999583334189 Z" stroke-miterlimit="10" stroke-width="2" stroke-dasharray=""/></g><g transform="matrix(1,0,0,1,45,46)"><path fill="#0066cc" stroke="none" id="_5E372D96-9267-4634-B3F8-CA872397BB16_state-inner-circle-border" paint-order="stroke fill markers" d=" M 25 0 A 25 25 0 1 0 24.99998750000104 0.02499999583334189 Z"/></g><g><g transform="matrix(0.35,0,0,0.35,33.8,34.45)"><g transform="matrix(1,0,0,1,0,0)"><path fill="#ffffff" stroke="#ffffff" id="_5E372D96-9267-4634-B3F8-CA872397BB16_state__9lPi__EKpD" paint-order="fill stroke markers" d=" M 0 0 M 61.99 20.83 C 62.4 21.9 62.050000000000004 23.119999999999997 61.2 23.9 L 55.790000000000006 28.83 C 55.93000000000001 29.869999999999997 56.00000000000001 30.93 56.00000000000001 32 C 56.00000000000001 33.07 55.92000000000001 34.14 55.790000000000006 35.17 L 61.2 40.09 C 62.050000000000004 40.88 62.400000000000006 42.09 61.99 43.17 C 61.440000000000005 44.660000000000004 60.78 46.09 60.03 47.46 L 59.44 48.47 C 58.61 49.85 57.69 51.15 56.68 52.379999999999995 C 55.93 53.269999999999996 54.72 53.58 53.62 53.23 L 46.66 51.01 C 44.98 52.3 43.019999999999996 53.37 41.16 54.199999999999996 L 39.599999999999994 61.339999999999996 C 39.349999999999994 62.459999999999994 38.48 63.26 37.31999999999999 63.559999999999995 C 35.599999999999994 63.849999999999994 33.81999999999999 63.99999999999999 31.89999999999999 63.99999999999999 C 30.199999999999992 63.99999999999999 28.41999999999999 63.849999999999994 26.699999999999992 63.559999999999995 C 25.549999999999994 63.26 24.679999999999993 62.459999999999994 24.429999999999993 61.339999999999996 L 22.869999999999994 54.199999999999996 C 20.889999999999993 53.37 19.039999999999992 52.3 17.369999999999994 51.01 L 10.409999999999993 53.23 C 9.309999999999993 53.58 8.089999999999993 53.269999999999996 7.3499999999999925 52.379999999999995 C 6.339999999999993 51.13999999999999 5.409999999999993 49.839999999999996 4.589999999999993 48.47 L 3.999999999999993 47.46 C 3.239999999999993 46.1 2.579999999999993 44.660000000000004 2.029999999999993 43.17 C 1.6299999999999932 42.09 1.969999999999993 40.88 2.819999999999993 40.09 L 8.229999999999993 35.17 C 8.089999999999993 34.13 8.019999999999992 33.07 8.019999999999992 32 C 8.019999999999992 30.93 8.089999999999993 29.86 8.229999999999993 28.83 L 2.819999999999993 23.9 C 1.9599999999999933 23.11 1.6199999999999932 21.91 2.029999999999993 20.83 C 2.579999999999993 19.34 3.249999999999993 17.9 3.999999999999993 16.54 L 4.579999999999993 15.53 C 5.409999999999993 14.149999999999999 6.329999999999993 12.86 7.3499999999999925 11.62 C 8.089999999999993 10.729999999999999 9.309999999999992 10.42 10.409999999999993 10.77 L 17.369999999999994 12.99 C 19.039999999999992 11.7 20.889999999999993 10.620000000000001 22.869999999999994 9.81 L 24.429999999999993 2.670000000000001 C 24.679999999999993 1.540000000000001 25.549999999999994 0.6300000000000008 26.699999999999992 0.44000000000000083 C 28.429999999999993 0.15000000000000085 30.199999999999992 8.326672684688674e-16 32.00999999999999 8.326672684688674e-16 C 33.81999999999999 8.326672684688674e-16 35.599999999999994 0.15000000000000083 37.31999999999999 0.44000000000000083 C 38.46999999999999 0.6300000000000008 39.349999999999994 1.530000000000001 39.599999999999994 2.670000000000001 L 41.16 9.81 C 43.019999999999996 10.63 44.98 11.700000000000001 46.66 12.99 L 53.62 10.77 C 54.72 10.42 55.93 10.73 56.68 11.62 C 57.69 12.85 58.62 14.149999999999999 59.44 15.53 L 60.03 16.54 C 60.78 17.9 61.44 19.34 61.99 20.83 L 61.99 20.83 Z M 0 0 M 32 42 C 37.53 42 42 37.53 42 31.89 C 42 26.25 37.53 21.89 32 21.89 C 26.47 21.89 22 26.48 22 31.89 C 22 37.3 26.48 42 32 42 Z" stroke-miterlimit="10" stroke-width="3" stroke-dasharray=""/></g></g></g><g transform="matrix(1,0,0,1,85,38.5)"><text fill="#000000" stroke="none" font-family="Open Sans" font-size="12pt" font-style="normal" font-weight="normal" text-decoration="normal" x="36.171875" y="12" text-anchor="middle" dominant-baseline="alphabetic">Good Bye</text></g></g><g transform="matrix(1,0,0,1,70,716)"/><g id="startEdge"><g><path fill="none" stroke="#757575" paint-order="fill stroke markers" d=" M 197 100 L 197 170" stroke-miterlimit="10" stroke-width="1.5" stroke-dasharray=""/></g><g transform="matrix(1,0,0,1,197,100)"/><g transform="matrix(-1,1.2246467991473532e-16,-1.2246467991473532e-16,-1,202,185)"><path fill="#757575" stroke="#757575" paint-order="fill stroke markers" d=" M 10 15 L 0 15 L 5 0 Z" stroke-miterlimit="10" stroke-width="1.5" stroke-dasharray=""/></g><g transform="matrix(1,0,0,1,207,142.5)"/></g><g id="_4076EEBF-F4D4-4730-AF79-3D7828C741BE"><g><path fill="none" stroke="#757575" paint-order="fill stroke markers" d=" M 197 277 L 197 347" stroke-miterlimit="10" stroke-width="1.5" stroke-dasharray=""/></g><g transform="matrix(1,0,0,1,197,277)"/><g transform="matrix(-1,1.2246467991473532e-16,-1.2246467991473532e-16,-1,202,362)"><path fill="#757575" stroke="#757575" paint-order="fill stroke markers" d=" M 10 15 L 0 15 L 5 0 Z" stroke-miterlimit="10" stroke-width="1.5" stroke-dasharray=""/></g><g transform="matrix(1,0,0,1,207,319.5)"/></g><g id="_1D0FF13C-326D-4F37-8DCA-4953AACE19C3"><g><path fill="none" stroke="#757575" paint-order="fill stroke markers" d=" M 197 454 L 197 524" stroke-miterlimit="10" stroke-width="1.5" stroke-dasharray=""/></g><g transform="matrix(1,0,0,1,197,454)"/><g transform="matrix(-1,1.2246467991473532e-16,-1.2246467991473532e-16,-1,202,539)"><path fill="#757575" stroke="#757575" paint-order="fill stroke markers" d=" M 10 15 L 0 15 L 5 0 Z" stroke-miterlimit="10" stroke-width="1.5" stroke-dasharray=""/></g><g transform="matrix(1,0,0,1,207,496.5)"/></g><g id="_E65196AC-EA49-40B4-988D-7D34E6555CF7"><g><path fill="none" stroke="#757575" paint-order="fill stroke markers" d=" M 197 631 L 197 701" stroke-miterlimit="10" stroke-width="1.5" stroke-dasharray=""/></g><g transform="matrix(1,0,0,1,197,631)"/><g transform="matrix(-1,1.2246467991473532e-16,-1.2246467991473532e-16,-1,202,716)"><path fill="#757575" stroke="#757575" paint-order="fill stroke markers" d=" M 10 15 L 0 15 L 5 0 Z" stroke-miterlimit="10" stroke-width="1.5" stroke-dasharray=""/></g><g transform="matrix(1,0,0,1,207,673.5)"/></g><g id="_17E61280-25E9-4618-A1E3-CFBE89161D84"><g><path fill="none" stroke="#757575" paint-order="fill stroke markers" d=" M 197 808 L 197 878" stroke-miterlimit="10" stroke-width="1.5" stroke-dasharray=""/></g><g transform="matrix(1,0,0,1,197,808)"/><g transform="matrix(-1,1.2246467991473532e-16,-1.2246467991473532e-16,-1,202,893)"><path fill="#757575" stroke="#757575" paint-order="fill stroke markers" d=" M 10 15 L 0 15 L 5 0 Z" stroke-miterlimit="10" stroke-width="1.5" stroke-dasharray=""/></g><g transform="matrix(1,0,0,1,207,850.5)"/></g></g></g></svg>