<svg version="1.1" xmlns="http://www.w3.org/2000/svg" xmlns:xlink="http://www.w3.org/1999/xlink" width="374" height="636" viewBox="0 0 374 636"><defs/><g transform="matrix(1,0,0,1,0,0)"><g><g><g><path fill="none" stroke="#d3d3d3" paint-order="fill stroke markers" d=" M 0 0 L 1200 0" stroke-miterlimit="10" stroke-opacity="0.8" stroke-dasharray="5"/></g><g><path fill="none" stroke="#d3d3d3" paint-order="fill stroke markers" d=" M 0 0 L 0 800" stroke-miterlimit="10" stroke-opacity="0.8" stroke-dasharray="5"/></g></g><g id="_DAFE5FE9-8C4A-4FE1-BDBF-51F381508622" transform="matrix(1,0,0,1,172,50)"><g><path fill="none" stroke="none"/></g><g transform="matrix(1,0,0,1,0,0)"><g transform="matrix(1,0,0,1,25,25)"><path fill="#ffffff" stroke="none" id="_DAFE5FE9-8C4A-4FE1-BDBF-51F381508622?shapeType=BACKGROUND" paint-order="stroke fill markers" d=" M 25 0 A 25 25 0 1 0 24.99998750000104 0.02499999583334189 Z"/></g><g transform="matrix(1,0,0,1,25,25)"><path fill="none" stroke="#d5d5d5" id="_DAFE5FE9-8C4A-4FE1-BDBF-51F381508622?shapeType=BORDER&amp;renderType=STROKE" paint-order="fill stroke markers" d=" M 25 0 A 25 25 0 1 0 24.99998750000104 0.02499999583334189 Z" stroke-miterlimit="10" stroke-width="2" stroke-dasharray=""/></g></g><g transform="matrix(1,0,0,1,7.24609375,17.5)"><text fill="#000000" stroke="none" font-family="Open Sans" font-size="12pt" font-style="normal" font-weight="normal" text-decoration="normal" x="17.75390625" y="12" text-anchor="middle" dominant-baseline="alphabetic" fill-opacity="0.4">Start</text></g></g><g transform="matrix(1,0,0,1,172,50)"/><g id="_DE2D3946-5404-4CBC-8BF6-93E460F53795" transform="matrix(1,0,0,1,172.5,539)"><g><path fill="none" stroke="none"/></g><g transform="matrix(1,0,0,1,0,0)"><path fill="#ffffff" stroke="none" id="_DE2D3946-5404-4CBC-8BF6-93E460F53795?shapeType=BACKGROUND" paint-order="stroke fill markers" d=" M 0 0 L 49 0 L 49 47 L 0 47 L 0 0 Z Z"/></g><g transform="matrix(1,0,0,1,0,0)"><path fill="none" stroke="#d5d5d5" id="_DE2D3946-5404-4CBC-8BF6-93E460F53795?shapeType=BORDER&amp;renderType=STROKE" paint-order="fill stroke markers" d=" M 0 0 L 49 0 L 49 47 L 0 47 L 0 0 Z Z" stroke-miterlimit="10" stroke-width="2" stroke-dasharray=""/></g><g transform="matrix(1,0,0,1,10.23828125,16)"><text fill="#000000" stroke="none" font-family="Open Sans" font-size="12pt" font-style="normal" font-weight="normal" text-decoration="normal" x="14.26171875" y="12" text-anchor="middle" dominant-baseline="alphabetic" fill-opacity="0.4">End</text></g></g><g transform="matrix(1,0,0,1,172.5,539)"/><g id="_0CD0D808-FF1F-477F-8B19-7DE7343D5332" transform="matrix(1,0,0,1,70,185)"><g><path fill="none" stroke="none"/></g><g transform="matrix(1,0,0,1,0,0)"><path fill="#ffffff" stroke="none" id="_0CD0D808-FF1F-477F-8B19-7DE7343D5332?shapeType=BACKGROUND" paint-order="stroke fill markers" d=" M 5 0 L 249 0 L 249 0 A 5 5 0 0 1 254 5 L 254 87 L 254 87 A 5 5 0 0 1 249 92 L 5 92 L 5 92 A 5 5 0 0 1 0 87 L 0 5 L 0 5.000000000000001 A 5 5 0 0 1 4.999999999999999 0 Z"/></g><g transform="matrix(1,0,0,1,0,0)"><path fill="none" stroke="#d5d5d5" id="_0CD0D808-FF1F-477F-8B19-7DE7343D5332?shapeType=BORDER&amp;renderType=STROKE" paint-order="fill stroke markers" d=" M 10 0 L 244 0 L 244 0 A 10 10 0 0 1 254 10 L 254 82 L 254 82 A 10 10 0 0 1 244 92 L 10 92 L 10 92 A 10 10 0 0 1 0 82 L 0 10 L 0 10.000000000000002 A 10 10 0 0 1 9.999999999999998 0 Z" stroke-miterlimit="10" stroke-width="2" stroke-dasharray=""/></g><g transform="matrix(1,0,0,1,45,46)"><path fill="none" stroke="#d5d5d5" id="_0CD0D808-FF1F-477F-8B19-7DE7343D5332_state-inner-circle" paint-order="fill stroke markers" d=" M 25 0 A 25 25 0 1 0 24.99998750000104 0.02499999583334189 Z" stroke-miterlimit="10" stroke-width="2" stroke-dasharray=""/></g><g transform="matrix(1,0,0,1,45,46)"><path fill="#f4c145" stroke="none" id="_0CD0D808-FF1F-477F-8B19-7DE7343D5332_state-inner-circle-border" paint-order="stroke fill markers" d=" M 25 0 A 25 25 0 1 0 24.99998750000104 0.02499999583334189 Z"/></g><g><g transform="matrix(0.35,0,0,0.35,33.8,34.45)"><g transform="matrix(1,0,0,1,0,0)"><path fill="#ffffff" stroke="#ffffff" id="_0CD0D808-FF1F-477F-8B19-7DE7343D5332_state__Mts6__bQLZ" paint-order="fill stroke markers" d=" M 0 0 M 24 4 L 24 8 L 40 8 L 40 4 C 40 1.79 41.79 0 44 0 C 46.21 0 48 1.79 48 4 L 48 8 L 54 8 C 57.31 8 60 10.69 60 14 L 60 20 L 4 20 L 4 14 C 4 10.69 6.6899999999999995 8 10 8 L 16 8 L 16 4 C 16 1.79 17.79 0 20 0 C 22.21 0 24 1.79 24 4 Z M 0 0 M 4 24 L 60 24 L 60 58 C 60 61.31 57.31 64 54 64 L 10 64 C 6.6899999999999995 64 4 61.31 4 58 L 4 24 Z M 0 0 M 14 32 C 12.9 32 12 32.9 12 34 L 12 46 C 12 47.1 12.9 48 14 48 L 26 48 C 27.1 48 28 47.1 28 46 L 28 34 C 28 32.9 27.1 32 26 32 L 14 32 Z" stroke-miterlimit="10" stroke-width="3" stroke-dasharray=""/></g></g></g><g transform="matrix(1,0,0,1,85,38.5)"><text fill="#000000" stroke="none" font-family="Open Sans" font-size="12pt" font-style="normal" font-weight="normal" text-decoration="normal" x="40.51171875" y="12" text-anchor="middle" dominant-baseline="alphabetic">Start Event</text></g></g><g transform="matrix(1,0,0,1,70,185)"/><g id="_0EEA5C14-A0E7-441A-9D44-C8A5BA229613" transform="matrix(1,0,0,1,70,362)"><g><path fill="none" stroke="none"/></g><g transform="matrix(1,0,0,1,0,0)"><path fill="#ffffff" stroke="none" id="_0EEA5C14-A0E7-441A-9D44-C8A5BA229613?shapeType=BACKGROUND" paint-order="stroke fill markers" d=" M 5 0 L 249 0 L 249 0 A 5 5 0 0 1 254 5 L 254 87 L 254 87 A 5 5 0 0 1 249 92 L 5 92 L 5 92 A 5 5 0 0 1 0 87 L 0 5 L 0 5.000000000000001 A 5 5 0 0 1 4.999999999999999 0 Z"/></g><g transform="matrix(1,0,0,1,0,0)"><path fill="none" stroke="#d5d5d5" id="_0EEA5C14-A0E7-441A-9D44-C8A5BA229613?shapeType=BORDER&amp;renderType=STROKE" paint-order="fill stroke markers" d=" M 10 0 L 244 0 L 244 0 A 10 10 0 0 1 254 10 L 254 82 L 254 82 A 10 10 0 0 1 244 92 L 10 92 L 10 92 A 10 10 0 0 1 0 82 L 0 10 L 0 10.000000000000002 A 10 10 0 0 1 9.999999999999998 0 Z" stroke-miterlimit="10" stroke-width="2" stroke-dasharray=""/></g><g transform="matrix(1,0,0,1,45,46)"><path fill="none" stroke="#d5d5d5" id="_0EEA5C14-A0E7-441A-9D44-C8A5BA229613_state-inner-circle" paint-order="fill stroke markers" d=" M 25 0 A 25 25 0 1 0 24.99998750000104 0.02499999583334189 Z" stroke-miterlimit="10" stroke-width="2" stroke-dasharray=""/></g><g transform="matrix(1,0,0,1,45,46)"><path fill="#ec7a08" stroke="none" id="_0EEA5C14-A0E7-441A-9D44-C8A5BA229613_state-inner-circle-border" paint-order="stroke fill markers" d=" M 25 0 A 25 25 0 1 0 24.99998750000104 0.02499999583334189 Z"/></g><g><g transform="matrix(0.35,0,0,0.35,33.8,34.45)"><g transform="matrix(1,0,0,1,0,0)"><path fill="#ffffff" stroke="#ffffff" id="_0EEA5C14-A0E7-441A-9D44-C8A5BA229613_state__ENS9__eIqf" paint-order="fill stroke markers" d=" M 0 0 M 63.97 36.13 C 63.97 34 62.33 32.18 60.21 32.06 C 57.9 31.930000000000003 55.980000000000004 33.760000000000005 55.980000000000004 36.050000000000004 C 55.980000000000004 42.660000000000004 50.61000000000001 48.03 44 48.03 L 24.03 48.03 L 24.03 43.04 C 24.03 41.86 23.330000000000002 40.79 22.25 40.3 C 21.17 39.83 19.91 40.019999999999996 19.02 40.82 L 9.04 49.8 C 8.409999999999998 50.36 8.049999999999999 51.169999999999995 8.049999999999999 52.019999999999996 C 8.049999999999999 52.87 8.409999999999998 53.67999999999999 9.04 54.24999999999999 L 19.02 63.22999999999999 C 19.58 63.73999999999999 20.3 63.99999999999999 21.02 63.99999999999999 C 21.43 63.99999999999999 21.849999999999998 63.90999999999999 22.24 63.739999999999995 C 23.32 63.26 24.02 62.19 24.02 60.99999999999999 L 24.02 56.00999999999999 L 43.989999999999995 56.00999999999999 C 54.97 56.00999999999999 63.91 47.099999999999994 63.959999999999994 36.11999999999999 Z M 0 0 M 20 16.08 L 39.85 16.08 L 39.96 21.07 C 39.96 22.25 40.660000000000004 23.32 41.74 23.810000000000002 C 42.14 23.980000000000004 42.550000000000004 24.070000000000004 42.85 24.070000000000004 C 43.58 24.070000000000004 44.29 23.800000000000004 44.86 23.300000000000004 L 54.84 14.320000000000004 C 55.580000000000005 13.750000000000004 55.940000000000005 12.940000000000005 55.940000000000005 11.980000000000004 C 55.940000000000005 11.020000000000003 55.580000000000005 10.320000000000004 54.95 9.750000000000004 L 44.97 0.76 C 44.089999999999996 -0.030000000000000027 42.82 -0.21999999999999997 41.75 0.25 C 40.67 0.85 39.86 1.92 39.86 3.1 L 39.97 8.09 L 20 8.09 C 8.99 8.09 0.03 17.05 0.03 28.06 C 0.03 30.27 1.82 32.05 4.0200000000000005 32.05 C 6.220000000000001 32.05 8.010000000000002 30.259999999999998 8.010000000000002 28.059999999999995 C 8.010000000000002 21.459999999999994 13.39 16.079999999999995 19.990000000000002 16.079999999999995 Z" stroke-miterlimit="10" stroke-width="3" stroke-dasharray=""/></g></g></g><g transform="matrix(1,0,0,1,85,38.5)"><text fill="#000000" stroke="none" font-family="Open Sans" font-size="12pt" font-style="normal" font-weight="normal" text-decoration="normal" x="30.90234375" y="12" text-anchor="middle" dominant-baseline="alphabetic">Callback</text></g></g><g transform="matrix(1,0,0,1,70,362)"/><g id="startEdge"><g><path fill="none" stroke="#757575" paint-order="fill stroke markers" d=" M 197 100 L 197 170" stroke-miterlimit="10" stroke-width="1.5" stroke-dasharray=""/></g><g transform="matrix(1,0,0,1,197,100)"/><g transform="matrix(-1,1.2246467991473532e-16,-1.2246467991473532e-16,-1,202,185)"><path fill="#757575" stroke="#757575" paint-order="fill stroke markers" d=" M 10 15 L 0 15 L 5 0 Z" stroke-miterlimit="10" stroke-width="1.5" stroke-dasharray=""/></g><g transform="matrix(1,0,0,1,207,142.5)"/></g><g id="_89504A9E-9898-459B-A7EB-F99CBF566196"><g><path fill="none" stroke="#757575" paint-order="fill stroke markers" d=" M 197 277 L 197 347" stroke-miterlimit="10" stroke-width="1.5" stroke-dasharray=""/></g><g transform="matrix(1,0,0,1,197,277)"/><g transform="matrix(-1,1.2246467991473532e-16,-1.2246467991473532e-16,-1,202,362)"><path fill="#757575" stroke="#757575" paint-order="fill stroke markers" d=" M 10 15 L 0 15 L 5 0 Z" stroke-miterlimit="10" stroke-width="1.5" stroke-dasharray=""/></g><g transform="matrix(1,0,0,1,207,319.5)"/></g><g id="_8DD5C07B-6B21-4ED8-9C3E-0A71C61B1E3A"><g><path fill="none" stroke="#757575" paint-order="fill stroke markers" d=" M 197 454 L 197 524" stroke-miterlimit="10" stroke-width="1.5" stroke-dasharray=""/></g><g transform="matrix(1,0,0,1,197,454)"/><g transform="matrix(-1,1.2246467991473532e-16,-1.2246467991473532e-16,-1,202,539)"><path fill="#757575" stroke="#757575" paint-order="fill stroke markers" d=" M 10 15 L 0 15 L 5 0 Z" stroke-miterlimit="10" stroke-width="1.5" stroke-dasharray=""/></g><g transform="matrix(1,0,0,1,207,496.5)"/></g></g></g></svg>