<svg version="1.1" xmlns="http://www.w3.org/2000/svg" xmlns:xlink="http://www.w3.org/1999/xlink" width="374" height="459" viewBox="0 0 374 459"><defs/><g transform="matrix(1,0,0,1,0,0)"><g><g><g><path fill="none" stroke="#d3d3d3" paint-order="fill stroke markers" d=" M 0 0 L 1200 0" stroke-miterlimit="10" stroke-opacity="0.8" stroke-dasharray="5"/></g><g><path fill="none" stroke="#d3d3d3" paint-order="fill stroke markers" d=" M 0 0 L 0 800" stroke-miterlimit="10" stroke-opacity="0.8" stroke-dasharray="5"/></g></g><g id="_9BEC5821-05E2-4AC2-A71F-FA664E26221E" transform="matrix(1,0,0,1,172,50)"><g><path fill="none" stroke="none"/></g><g transform="matrix(1,0,0,1,0,0)"><g transform="matrix(1,0,0,1,25,25)"><path fill="#ffffff" stroke="none" id="_9BEC5821-05E2-4AC2-A71F-FA664E26221E?shapeType=BACKGROUND" paint-order="stroke fill markers" d=" M 25 0 A 25 25 0 1 0 24.99998750000104 0.02499999583334189 Z"/></g><g transform="matrix(1,0,0,1,25,25)"><path fill="none" stroke="#d5d5d5" id="_9BEC5821-05E2-4AC2-A71F-FA664E26221E?shapeType=BORDER&amp;renderType=STROKE" paint-order="fill stroke markers" d=" M 25 0 A 25 25 0 1 0 24.99998750000104 0.02499999583334189 Z" stroke-miterlimit="10" stroke-width="2" stroke-dasharray=""/></g></g><g transform="matrix(1,0,0,1,7.24609375,17.5)"><text fill="#000000" stroke="none" font-family="Open Sans" font-size="12pt" font-style="normal" font-weight="normal" text-decoration="normal" x="17.75390625" y="12" text-anchor="middle" dominant-baseline="alphabetic" fill-opacity="0.4">Start</text></g></g><g transform="matrix(1,0,0,1,172,50)"/><g id="_076C4A62-4B9B-46EB-BF26-C994F5EACF3B" transform="matrix(1,0,0,1,172.5,362)"><g><path fill="none" stroke="none"/></g><g transform="matrix(1,0,0,1,0,0)"><path fill="#ffffff" stroke="none" id="_076C4A62-4B9B-46EB-BF26-C994F5EACF3B?shapeType=BACKGROUND" paint-order="stroke fill markers" d=" M 0 0 L 49 0 L 49 47 L 0 47 L 0 0 Z Z"/></g><g transform="matrix(1,0,0,1,0,0)"><path fill="none" stroke="#d5d5d5" id="_076C4A62-4B9B-46EB-BF26-C994F5EACF3B?shapeType=BORDER&amp;renderType=STROKE" paint-order="fill stroke markers" d=" M 0 0 L 49 0 L 49 47 L 0 47 L 0 0 Z Z" stroke-miterlimit="10" stroke-width="2" stroke-dasharray=""/></g><g transform="matrix(1,0,0,1,10.23828125,16)"><text fill="#000000" stroke="none" font-family="Open Sans" font-size="12pt" font-style="normal" font-weight="normal" text-decoration="normal" x="14.26171875" y="12" text-anchor="middle" dominant-baseline="alphabetic" fill-opacity="0.4">End</text></g></g><g transform="matrix(1,0,0,1,172.5,362)"/><g id="_3B0F2B8D-FF02-41B1-BD10-C07434B5F2D7" transform="matrix(1,0,0,1,70,185)"><g><path fill="none" stroke="none"/></g><g transform="matrix(1,0,0,1,0,0)"><path fill="#ffffff" stroke="none" id="_3B0F2B8D-FF02-41B1-BD10-C07434B5F2D7?shapeType=BACKGROUND" paint-order="stroke fill markers" d=" M 5 0 L 249 0 L 249 0 A 5 5 0 0 1 254 5 L 254 87 L 254 87 A 5 5 0 0 1 249 92 L 5 92 L 5 92 A 5 5 0 0 1 0 87 L 0 5 L 0 5.000000000000001 A 5 5 0 0 1 4.999999999999999 0 Z"/></g><g transform="matrix(1,0,0,1,0,0)"><path fill="none" stroke="#d5d5d5" id="_3B0F2B8D-FF02-41B1-BD10-C07434B5F2D7?shapeType=BORDER&amp;renderType=STROKE" paint-order="fill stroke markers" d=" M 10 0 L 244 0 L 244 0 A 10 10 0 0 1 254 10 L 254 82 L 254 82 A 10 10 0 0 1 244 92 L 10 92 L 10 92 A 10 10 0 0 1 0 82 L 0 10 L 0 10.000000000000002 A 10 10 0 0 1 9.999999999999998 0 Z" stroke-miterlimit="10" stroke-width="2" stroke-dasharray=""/></g><g transform="matrix(1,0,0,1,45,46)"><path fill="none" stroke="#d5d5d5" id="_3B0F2B8D-FF02-41B1-BD10-C07434B5F2D7_state-inner-circle" paint-order="fill stroke markers" d=" M 25 0 A 25 25 0 1 0 24.99998750000104 0.02499999583334189 Z" stroke-miterlimit="10" stroke-width="2" stroke-dasharray=""/></g><g transform="matrix(1,0,0,1,45,46)"><path fill="#8f4700" stroke="none" id="_3B0F2B8D-FF02-41B1-BD10-C07434B5F2D7_state-inner-circle-border" paint-order="stroke fill markers" d=" M 25 0 A 25 25 0 1 0 24.99998750000104 0.02499999583334189 Z"/></g><g><g transform="matrix(0.35,0,0,0.35,33.8,34.45)"><g transform="matrix(1,0,0,1,0,0)"><path fill="#ffffff" stroke="#ffffff" id="_3B0F2B8D-FF02-41B1-BD10-C07434B5F2D7_state__RGI3__G234" paint-order="fill stroke markers" d=" M 0 0 M 64 32.22 L 64 59.459999999999994 C 64 61.8 62.09 63.949999999999996 59.76 64.11 C 57.08 64.3 54.86 62.19 54.86 59.55 L 54.86 32.12 C 54.86 29.479999999999997 57.08 27.369999999999997 59.76 27.56 C 62.099999999999994 27.72 64 29.869999999999997 64 32.21 Z" stroke-miterlimit="10" stroke-width="3" stroke-dasharray=""/></g><g transform="matrix(1,0,0,1,0,0)"><path fill="#ffffff" stroke="#ffffff" id="_3B0F2B8D-FF02-41B1-BD10-C07434B5F2D7_state__RGI3__GDo9" paint-order="fill stroke markers" d=" M 0 0 M 45.71 59.56 C 45.71 62.2 43.49 64.31 40.81 64.12 C 38.47 63.96000000000001 36.57 61.81 36.57 59.470000000000006 L 36.57 32.230000000000004 C 36.57 29.890000000000004 38.48 27.740000000000002 40.81 27.580000000000005 C 43.49 27.390000000000004 45.71 29.500000000000007 45.71 32.14000000000001 L 45.71 59.57000000000001 Z" stroke-miterlimit="10" stroke-width="3" stroke-dasharray=""/></g><g transform="matrix(1,0,0,1,0,0)"><path fill="#ffffff" stroke="#ffffff" id="_3B0F2B8D-FF02-41B1-BD10-C07434B5F2D7_state__RGI3__8WJ0" paint-order="fill stroke markers" d=" M 0 0 M 27.43 4.79 L 27.43 32.03 C 27.43 34.370000000000005 25.52 36.52 23.189999999999998 36.68 C 20.509999999999998 36.87 18.29 34.76 18.29 32.12 L 18.29 4.7 C 18.29 2.07 20.51 -0.04 23.18 0.14 C 25.52 0.30000000000000004 27.42 2.45 27.42 4.79 Z" stroke-miterlimit="10" stroke-width="3" stroke-dasharray=""/></g><g transform="matrix(1,0,0,1,0,0)"><path fill="#ffffff" stroke="#ffffff" id="_3B0F2B8D-FF02-41B1-BD10-C07434B5F2D7_state__RGI3__OYyF" paint-order="fill stroke markers" d=" M 0 0 M 9.14 32.13 C 9.14 34.77 6.92 36.88 4.24 36.690000000000005 C 1.91 36.53 0 34.38 0 32.04 L 0 4.79 C 0 2.45 1.91 0.3 4.24 0.14 C 6.92 -0.04999999999999999 9.14 2.06 9.14 4.699999999999999 L 9.14 32.129999999999995 Z" stroke-miterlimit="10" stroke-width="3" stroke-dasharray=""/></g></g></g><g transform="matrix(1,0,0,1,85,38.5)"><text fill="#000000" stroke="none" font-family="Open Sans" font-size="12pt" font-style="normal" font-weight="normal" text-decoration="normal" x="31.921875" y="12" text-anchor="middle" dominant-baseline="alphabetic">For Each</text></g></g><g transform="matrix(1,0,0,1,70,185)"/><g id="startEdge"><g><path fill="none" stroke="#757575" paint-order="fill stroke markers" d=" M 197 100 L 197 170" stroke-miterlimit="10" stroke-width="1.5" stroke-dasharray=""/></g><g transform="matrix(1,0,0,1,197,100)"/><g transform="matrix(-1,1.2246467991473532e-16,-1.2246467991473532e-16,-1,202,185)"><path fill="#757575" stroke="#757575" paint-order="fill stroke markers" d=" M 10 15 L 0 15 L 5 0 Z" stroke-miterlimit="10" stroke-width="1.5" stroke-dasharray=""/></g><g transform="matrix(1,0,0,1,207,142.5)"/></g><g id="_2FCE7C7F-D105-49CB-B4F2-2A4CCD100A77"><g><path fill="none" stroke="#757575" paint-order="fill stroke markers" d=" M 197 277 L 197 347" stroke-miterlimit="10" stroke-width="1.5" stroke-dasharray=""/></g><g transform="matrix(1,0,0,1,197,277)"/><g transform="matrix(-1,1.2246467991473532e-16,-1.2246467991473532e-16,-1,202,362)"><path fill="#757575" stroke="#757575" paint-order="fill stroke markers" d=" M 10 15 L 0 15 L 5 0 Z" stroke-miterlimit="10" stroke-width="1.5" stroke-dasharray=""/></g><g transform="matrix(1,0,0,1,207,319.5)"/></g></g></g></svg>