<svg version="1.1" xmlns="http://www.w3.org/2000/svg" xmlns:xlink="http://www.w3.org/1999/xlink" width="1022" height="1187" viewBox="0 0 1022 1187"><defs/><g transform="matrix(1,0,0,1,0,0)"><g><g><g><path fill="none" stroke="#d3d3d3" paint-order="fill stroke markers" d=" M 0 0 L 1200 0" stroke-miterlimit="10" stroke-opacity="0.8" stroke-dasharray="5"/></g><g><path fill="none" stroke="#d3d3d3" paint-order="fill stroke markers" d=" M 0 0 L 0 800" stroke-miterlimit="10" stroke-opacity="0.8" stroke-dasharray="5"/></g></g><g id="_2215EF02-6BB7-4692-8BFC-ACA9BB75E1E3" transform="matrix(1,0,0,1,355.16666666666674,50)"><g><path fill="none" stroke="none"/></g><g transform="matrix(1,0,0,1,0,0)"><g transform="matrix(1,0,0,1,25,25)"><path fill="#ffffff" stroke="none" id="_2215EF02-6BB7-4692-8BFC-ACA9BB75E1E3?shapeType=BACKGROUND" paint-order="stroke fill markers" d=" M 25 0 A 25 25 0 1 0 24.99998750000104 0.02499999583334189 Z"/></g><g transform="matrix(1,0,0,1,25,25)"><path fill="none" stroke="#d5d5d5" id="_2215EF02-6BB7-4692-8BFC-ACA9BB75E1E3?shapeType=BORDER&amp;renderType=STROKE" paint-order="fill stroke markers" d=" M 25 0 A 25 25 0 1 0 24.99998750000104 0.02499999583334189 Z" stroke-miterlimit="10" stroke-width="2" stroke-dasharray=""/></g></g><g transform="matrix(1,0,0,1,7.24609375,17.5)"><text fill="#000000" stroke="none" font-family="Open Sans" font-size="12pt" font-style="normal" font-weight="normal" text-decoration="normal" x="17.75390625" y="12" text-anchor="middle" dominant-baseline="alphabetic" fill-opacity="0.4">Start</text></g></g><g transform="matrix(1,0,0,1,355.16666666666674,50)"/><g id="_4B566C4E-EAF4-4758-8286-82636571AADF" transform="matrix(1,0,0,1,496.5,1090)"><g><path fill="none" stroke="none"/></g><g transform="matrix(1,0,0,1,0,0)"><path fill="#ffffff" stroke="none" id="_4B566C4E-EAF4-4758-8286-82636571AADF?shapeType=BACKGROUND" paint-order="stroke fill markers" d=" M 0 0 L 49 0 L 49 47 L 0 47 L 0 0 Z Z"/></g><g transform="matrix(1,0,0,1,0,0)"><path fill="none" stroke="#d5d5d5" id="_4B566C4E-EAF4-4758-8286-82636571AADF?shapeType=BORDER&amp;renderType=STROKE" paint-order="fill stroke markers" d=" M 0 0 L 49 0 L 49 47 L 0 47 L 0 0 Z Z" stroke-miterlimit="10" stroke-width="2" stroke-dasharray=""/></g><g transform="matrix(1,0,0,1,10.23828125,16)"><text fill="#000000" stroke="none" font-family="Open Sans" font-size="12pt" font-style="normal" font-weight="normal" text-decoration="normal" x="14.26171875" y="12" text-anchor="middle" dominant-baseline="alphabetic" fill-opacity="0.4">End</text></g></g><g transform="matrix(1,0,0,1,496.5,1090)"/><g id="_278B5EB8-7551-45EC-BD9F-8A1A03BDD8C6" transform="matrix(1,0,0,1,253.16666666666669,185)"><g><path fill="none" stroke="none"/></g><g transform="matrix(1,0,0,1,0,0)"><path fill="#ffffff" stroke="none" id="_278B5EB8-7551-45EC-BD9F-8A1A03BDD8C6?shapeType=BACKGROUND" paint-order="stroke fill markers" d=" M 5 0 L 249 0 L 249 0 A 5 5 0 0 1 254 5 L 254 87 L 254 87 A 5 5 0 0 1 249 92 L 5 92 L 5 92 A 5 5 0 0 1 0 87 L 0 5 L 0 5.000000000000001 A 5 5 0 0 1 4.999999999999999 0 Z"/></g><g transform="matrix(1,0,0,1,0,0)"><path fill="none" stroke="rgb(0,136,206)" id="_278B5EB8-7551-45EC-BD9F-8A1A03BDD8C6?shapeType=BORDER&amp;renderType=STROKE" paint-order="fill stroke markers" d=" M 10 0 L 244 0 L 244 0 A 10 10 0 0 1 254 10 L 254 82 L 254 82 A 10 10 0 0 1 244 92 L 10 92 L 10 92 A 10 10 0 0 1 0 82 L 0 10 L 0 10.000000000000002 A 10 10 0 0 1 9.999999999999998 0 Z" stroke-miterlimit="10" stroke-width="2" stroke-dasharray=""/></g><g transform="matrix(1,0,0,1,45,46)"><path fill="none" stroke="#d5d5d5" id="_278B5EB8-7551-45EC-BD9F-8A1A03BDD8C6_state-inner-circle" paint-order="fill stroke markers" d=" M 25 0 A 25 25 0 1 0 24.99998750000104 0.02499999583334189 Z" stroke-miterlimit="10" stroke-width="2" stroke-dasharray=""/></g><g transform="matrix(1,0,0,1,45,46)"><path fill="#8bc1f7" stroke="none" id="_278B5EB8-7551-45EC-BD9F-8A1A03BDD8C6_state-inner-circle-border" paint-order="stroke fill markers" d=" M 25 0 A 25 25 0 1 0 24.99998750000104 0.02499999583334189 Z"/></g><g><g transform="matrix(0.35,0,0,0.35,33.8,34.45)"><g transform="matrix(1,0,0,1,0,0)"><path fill="#ffffff" stroke="#ffffff" id="_278B5EB8-7551-45EC-BD9F-8A1A03BDD8C6_state__6KLp__2vQB" paint-order="fill stroke markers" d=" M 0 0 M 35.02 28.49 C 35.02 28.49 34.99 28.459999999999997 34.970000000000006 28.45 L 24.680000000000007 18.16 C 22.900000000000006 16.38 20.000000000000007 16.37 18.220000000000006 18.16 C 16.430000000000007 19.95 16.440000000000005 22.84 18.220000000000006 24.62 L 21.030000000000005 27.43 L 4.57 27.43 C 2.0500000000000003 27.43 0 29.47 0 32 C 0 34.53 2.05 36.57 4.57 36.57 L 20.94 36.57 L 18.19 39.32 C 16.41 41.1 16.400000000000002 44 18.19 45.78 C 19.98 47.56 22.87 47.56 24.650000000000002 45.78 L 34.74 35.69 C 35.02 35.489999999999995 35.28 35.25 35.510000000000005 34.98 C 36.010000000000005 34.4 36.330000000000005 33.709999999999994 36.480000000000004 32.98 C 36.85 31.389999999999997 36.370000000000005 29.65 35.02 28.479999999999997 Z" stroke-miterlimit="10" stroke-width="3" stroke-dasharray=""/></g><g transform="matrix(1,0,0,1,0,0)"><path fill="#ffffff" stroke="#ffffff" id="_278B5EB8-7551-45EC-BD9F-8A1A03BDD8C6_state__6KLp__dmeJ" paint-order="fill stroke markers" d=" M 0 0 M 0.01 4.23 C 0.19 1.83 2.25 0 4.66 0 L 59.43 0 C 61.96 0 64 2.05 64 4.57 C 64 7.090000000000001 61.96 9.14 59.43 9.14 L 4.57 9.14 C 1.93 9.14 -0.18 6.91 0.01 4.23 Z" stroke-miterlimit="10" stroke-width="3" stroke-dasharray=""/></g><g transform="matrix(1,0,0,1,0,0)"><path fill="#ffffff" stroke="#ffffff" id="_278B5EB8-7551-45EC-BD9F-8A1A03BDD8C6_state__6KLp__HlVg" paint-order="fill stroke markers" d=" M 0 0 M 46.09 18.29 L 59.330000000000005 18.29 C 61.67 18.29 63.82000000000001 20.2 63.980000000000004 22.53 C 64.17 25.21 62.06 27.43 59.42 27.43 L 45.99 27.43 C 43.35 27.43 41.24 25.21 41.43 22.53 C 41.589999999999996 20.19 43.74 18.29 46.08 18.29 Z" stroke-miterlimit="10" stroke-width="3" stroke-dasharray=""/></g><g transform="matrix(1,0,0,1,0,0)"><path fill="#ffffff" stroke="#ffffff" id="_278B5EB8-7551-45EC-BD9F-8A1A03BDD8C6_state__6KLp__eDCV" paint-order="fill stroke markers" d=" M 0 0 M 59.43 36.57 C 62.07 36.57 64.18 38.79 63.99 41.47 C 63.830000000000005 43.81 61.68 45.71 59.34 45.71 L 46.1 45.71 C 43.760000000000005 45.71 41.61 43.800000000000004 41.45 41.47 C 41.260000000000005 38.79 43.370000000000005 36.57 46.010000000000005 36.57 L 59.440000000000005 36.57 Z" stroke-miterlimit="10" stroke-width="3" stroke-dasharray=""/></g><g transform="matrix(1,0,0,1,0,0)"><path fill="#ffffff" stroke="#ffffff" id="_278B5EB8-7551-45EC-BD9F-8A1A03BDD8C6_state__6KLp__MW2h" paint-order="fill stroke markers" d=" M 0 0 M 0 59.43 C 0 56.9 2.05 54.86 4.57 54.86 L 59.34 54.86 C 61.68000000000001 54.86 63.830000000000005 56.769999999999996 63.99 59.1 C 64.18 61.78 62.07 64 59.43 64 L 4.57 64 C 2.0500000000000003 64 0 61.96 0 59.43 Z" stroke-miterlimit="10" stroke-width="3" stroke-dasharray=""/></g></g></g><g transform="matrix(1,0,0,1,85,38.5)"><text fill="#000000" stroke="none" font-family="Open Sans" font-size="12pt" font-style="normal" font-weight="normal" text-decoration="normal" x="20.28515625" y="12" text-anchor="middle" dominant-baseline="alphabetic">Inject</text></g></g><g transform="matrix(1,0,0,1,253.16666666666669,185)"/><g id="_7CF08B9E-9529-47E2-BD60-EBA6AFFC3108" transform="matrix(1,0,0,1,253.16666666666669,362)"><g><path fill="none" stroke="none"/></g><g transform="matrix(1,0,0,1,0,0)"><path fill="#ffffff" stroke="none" id="_7CF08B9E-9529-47E2-BD60-EBA6AFFC3108?shapeType=BACKGROUND" paint-order="stroke fill markers" d=" M 5 0 L 249 0 L 249 0 A 5 5 0 0 1 254 5 L 254 87 L 254 87 A 5 5 0 0 1 249 92 L 5 92 L 5 92 A 5 5 0 0 1 0 87 L 0 5 L 0 5.000000000000001 A 5 5 0 0 1 4.999999999999999 0 Z"/></g><g transform="matrix(1,0,0,1,0,0)"><path fill="none" stroke="#d5d5d5" id="_7CF08B9E-9529-47E2-BD60-EBA6AFFC3108?shapeType=BORDER&amp;renderType=STROKE" paint-order="fill stroke markers" d=" M 10 0 L 244 0 L 244 0 A 10 10 0 0 1 254 10 L 254 82 L 254 82 A 10 10 0 0 1 244 92 L 10 92 L 10 92 A 10 10 0 0 1 0 82 L 0 10 L 0 10.000000000000002 A 10 10 0 0 1 9.999999999999998 0 Z" stroke-miterlimit="10" stroke-width="2" stroke-dasharray=""/></g><g transform="matrix(1,0,0,1,45,46)"><path fill="none" stroke="#d5d5d5" id="_7CF08B9E-9529-47E2-BD60-EBA6AFFC3108_state-inner-circle" paint-order="fill stroke markers" d=" M 25 0 A 25 25 0 1 0 24.99998750000104 0.02499999583334189 Z" stroke-miterlimit="10" stroke-width="2" stroke-dasharray=""/></g><g transform="matrix(1,0,0,1,45,46)"><path fill="#f4c145" stroke="none" id="_7CF08B9E-9529-47E2-BD60-EBA6AFFC3108_state-inner-circle-border" paint-order="stroke fill markers" d=" M 25 0 A 25 25 0 1 0 24.99998750000104 0.02499999583334189 Z"/></g><g><g transform="matrix(0.35,0,0,0.35,33.8,34.45)"><g transform="matrix(1,0,0,1,0,0)"><path fill="#ffffff" stroke="#ffffff" id="_7CF08B9E-9529-47E2-BD60-EBA6AFFC3108_state__Mts6__bQLZ" paint-order="fill stroke markers" d=" M 0 0 M 24 4 L 24 8 L 40 8 L 40 4 C 40 1.79 41.79 0 44 0 C 46.21 0 48 1.79 48 4 L 48 8 L 54 8 C 57.31 8 60 10.69 60 14 L 60 20 L 4 20 L 4 14 C 4 10.69 6.6899999999999995 8 10 8 L 16 8 L 16 4 C 16 1.79 17.79 0 20 0 C 22.21 0 24 1.79 24 4 Z M 0 0 M 4 24 L 60 24 L 60 58 C 60 61.31 57.31 64 54 64 L 10 64 C 6.6899999999999995 64 4 61.31 4 58 L 4 24 Z M 0 0 M 14 32 C 12.9 32 12 32.9 12 34 L 12 46 C 12 47.1 12.9 48 14 48 L 26 48 C 27.1 48 28 47.1 28 46 L 28 34 C 28 32.9 27.1 32 26 32 L 14 32 Z" stroke-miterlimit="10" stroke-width="3" stroke-dasharray=""/></g></g></g><g transform="matrix(1,0,0,1,85,38.5)"><text fill="#000000" stroke="none" font-family="Open Sans" font-size="12pt" font-style="normal" font-weight="normal" text-decoration="normal" x="63.98828125" y="12" text-anchor="middle" dominant-baseline="alphabetic">HandleNewGreet</text></g></g><g transform="matrix(1,0,0,1,253.16666666666669,362)"/><g id="_12944FFD-CE45-4D24-9305-EF364477F506" transform="matrix(1,0,0,1,253.16666666666669,539)"><g><path fill="none" stroke="none"/></g><g transform="matrix(1,0,0,1,0,0)"><path fill="#ffffff" stroke="none" id="_12944FFD-CE45-4D24-9305-EF364477F506?shapeType=BACKGROUND" paint-order="stroke fill markers" d=" M 5 0 L 249 0 L 249 0 A 5 5 0 0 1 254 5 L 254 87 L 254 87 A 5 5 0 0 1 249 92 L 5 92 L 5 92 A 5 5 0 0 1 0 87 L 0 5 L 0 5.000000000000001 A 5 5 0 0 1 4.999999999999999 0 Z"/></g><g transform="matrix(1,0,0,1,0,0)"><path fill="none" stroke="#d5d5d5" id="_12944FFD-CE45-4D24-9305-EF364477F506?shapeType=BORDER&amp;renderType=STROKE" paint-order="fill stroke markers" d=" M 10 0 L 244 0 L 244 0 A 10 10 0 0 1 254 10 L 254 82 L 254 82 A 10 10 0 0 1 244 92 L 10 92 L 10 92 A 10 10 0 0 1 0 82 L 0 10 L 0 10.000000000000002 A 10 10 0 0 1 9.999999999999998 0 Z" stroke-miterlimit="10" stroke-width="2" stroke-dasharray=""/></g><g transform="matrix(1,0,0,1,45,46)"><path fill="none" stroke="#d5d5d5" id="_12944FFD-CE45-4D24-9305-EF364477F506_state-inner-circle" paint-order="fill stroke markers" d=" M 25 0 A 25 25 0 1 0 24.99998750000104 0.02499999583334189 Z" stroke-miterlimit="10" stroke-width="2" stroke-dasharray=""/></g><g transform="matrix(1,0,0,1,45,46)"><path fill="#009596" stroke="none" id="_12944FFD-CE45-4D24-9305-EF364477F506_state-inner-circle-border" paint-order="stroke fill markers" d=" M 25 0 A 25 25 0 1 0 24.99998750000104 0.02499999583334189 Z"/></g><g><g transform="matrix(0.35,0,0,0.35,33.8,34.45)"><g transform="matrix(1,0,0,1,0,0)"><path fill="#ffffff" stroke="#ffffff" id="_12944FFD-CE45-4D24-9305-EF364477F506_state__rBdm__KXw4" paint-order="fill stroke markers" d=" M 0 0 M 60.6 46.54 L 54.07 46.54 L 54.07 37.83 C 54.01 36.449999999999996 53.35 35.14 52.24 34.309999999999995 L 44.82 28.749999999999996 L 44.82 28.749999999999996 L 36.41 22.389999999999997 L 36.41 4.4 C 36.4 1.87 34.26 -0.17 31.69 0.01 C 29.44 0.17 27.6 2.23 27.6 4.49 L 27.6 22.41 L 19.19 28.72 L 19.19 28.72 L 11.770000000000001 34.269999999999996 C 10.660000000000002 35.099999999999994 10.010000000000002 36.41 9.940000000000001 37.79 L 9.940000000000001 46.5 L 3.4 46.5 C 0.45999999999999996 46.47 -1.02 50.03 1.06 52.11 L 12.07 63 C 13.36 64.29 15.45 64.29 16.75 63 L 27.759999999999998 52.11 C 29.839999999999996 50.15 28.369999999999997 46.59 25.419999999999998 46.64 L 18.75 46.64 L 18.75 40.01 C 18.75 40.01 26.97 33.93 32.03 30.14 C 36.99 33.87 45.230000000000004 40.06 45.27 40.04 L 45.27 46.67 L 38.6 46.67 C 35.660000000000004 46.620000000000005 34.18 50.18 36.260000000000005 52.14 L 47.27 63.03 C 48.56 64.32000000000001 50.650000000000006 64.32000000000001 51.95 63.03 L 62.96 52.14 C 65.04 50.06 63.56 46.5 60.620000000000005 46.53 Z" stroke-miterlimit="10" stroke-width="3" stroke-dasharray=""/></g></g></g><g transform="matrix(1,0,0,1,85,31)"><text fill="#000000" stroke="none" font-family="Open Sans" font-size="12pt" font-style="normal" font-weight="normal" text-decoration="normal" x="75.19140625" y="12" text-anchor="middle" dominant-baseline="alphabetic">ChooseOnLanguage</text></g></g><g transform="matrix(1,0,0,1,253.16666666666669,539)"/><g id="_4F7018A6-05F6-4A9E-952D-A43FD1FBE330" transform="matrix(1,0,0,1,70,736)"><g><path fill="none" stroke="none"/></g><g transform="matrix(1,0,0,1,0,0)"><path fill="#ffffff" stroke="none" id="_4F7018A6-05F6-4A9E-952D-A43FD1FBE330?shapeType=BACKGROUND" paint-order="stroke fill markers" d=" M 5 0 L 249 0 L 249 0 A 5 5 0 0 1 254 5 L 254 87 L 254 87 A 5 5 0 0 1 249 92 L 5 92 L 5 92 A 5 5 0 0 1 0 87 L 0 5 L 0 5.000000000000001 A 5 5 0 0 1 4.999999999999999 0 Z"/></g><g transform="matrix(1,0,0,1,0,0)"><path fill="none" stroke="#d5d5d5" id="_4F7018A6-05F6-4A9E-952D-A43FD1FBE330?shapeType=BORDER&amp;renderType=STROKE" paint-order="fill stroke markers" d=" M 10 0 L 244 0 L 244 0 A 10 10 0 0 1 254 10 L 254 82 L 254 82 A 10 10 0 0 1 244 92 L 10 92 L 10 92 A 10 10 0 0 1 0 82 L 0 10 L 0 10.000000000000002 A 10 10 0 0 1 9.999999999999998 0 Z" stroke-miterlimit="10" stroke-width="2" stroke-dasharray=""/></g><g transform="matrix(1,0,0,1,45,46)"><path fill="none" stroke="#d5d5d5" id="_4F7018A6-05F6-4A9E-952D-A43FD1FBE330_state-inner-circle" paint-order="fill stroke markers" d=" M 25 0 A 25 25 0 1 0 24.99998750000104 0.02499999583334189 Z" stroke-miterlimit="10" stroke-width="2" stroke-dasharray=""/></g><g transform="matrix(1,0,0,1,45,46)"><path fill="#8bc1f7" stroke="none" id="_4F7018A6-05F6-4A9E-952D-A43FD1FBE330_state-inner-circle-border" paint-order="stroke fill markers" d=" M 25 0 A 25 25 0 1 0 24.99998750000104 0.02499999583334189 Z"/></g><g><g transform="matrix(0.35,0,0,0.35,33.8,34.45)"><g transform="matrix(1,0,0,1,0,0)"><path fill="#ffffff" stroke="#ffffff" id="_4F7018A6-05F6-4A9E-952D-A43FD1FBE330_state__6KLp__2vQB" paint-order="fill stroke markers" d=" M 0 0 M 35.02 28.49 C 35.02 28.49 34.99 28.459999999999997 34.970000000000006 28.45 L 24.680000000000007 18.16 C 22.900000000000006 16.38 20.000000000000007 16.37 18.220000000000006 18.16 C 16.430000000000007 19.95 16.440000000000005 22.84 18.220000000000006 24.62 L 21.030000000000005 27.43 L 4.57 27.43 C 2.0500000000000003 27.43 0 29.47 0 32 C 0 34.53 2.05 36.57 4.57 36.57 L 20.94 36.57 L 18.19 39.32 C 16.41 41.1 16.400000000000002 44 18.19 45.78 C 19.98 47.56 22.87 47.56 24.650000000000002 45.78 L 34.74 35.69 C 35.02 35.489999999999995 35.28 35.25 35.510000000000005 34.98 C 36.010000000000005 34.4 36.330000000000005 33.709999999999994 36.480000000000004 32.98 C 36.85 31.389999999999997 36.370000000000005 29.65 35.02 28.479999999999997 Z" stroke-miterlimit="10" stroke-width="3" stroke-dasharray=""/></g><g transform="matrix(1,0,0,1,0,0)"><path fill="#ffffff" stroke="#ffffff" id="_4F7018A6-05F6-4A9E-952D-A43FD1FBE330_state__6KLp__dmeJ" paint-order="fill stroke markers" d=" M 0 0 M 0.01 4.23 C 0.19 1.83 2.25 0 4.66 0 L 59.43 0 C 61.96 0 64 2.05 64 4.57 C 64 7.090000000000001 61.96 9.14 59.43 9.14 L 4.57 9.14 C 1.93 9.14 -0.18 6.91 0.01 4.23 Z" stroke-miterlimit="10" stroke-width="3" stroke-dasharray=""/></g><g transform="matrix(1,0,0,1,0,0)"><path fill="#ffffff" stroke="#ffffff" id="_4F7018A6-05F6-4A9E-952D-A43FD1FBE330_state__6KLp__HlVg" paint-order="fill stroke markers" d=" M 0 0 M 46.09 18.29 L 59.330000000000005 18.29 C 61.67 18.29 63.82000000000001 20.2 63.980000000000004 22.53 C 64.17 25.21 62.06 27.43 59.42 27.43 L 45.99 27.43 C 43.35 27.43 41.24 25.21 41.43 22.53 C 41.589999999999996 20.19 43.74 18.29 46.08 18.29 Z" stroke-miterlimit="10" stroke-width="3" stroke-dasharray=""/></g><g transform="matrix(1,0,0,1,0,0)"><path fill="#ffffff" stroke="#ffffff" id="_4F7018A6-05F6-4A9E-952D-A43FD1FBE330_state__6KLp__eDCV" paint-order="fill stroke markers" d=" M 0 0 M 59.43 36.57 C 62.07 36.57 64.18 38.79 63.99 41.47 C 63.830000000000005 43.81 61.68 45.71 59.34 45.71 L 46.1 45.71 C 43.760000000000005 45.71 41.61 43.800000000000004 41.45 41.47 C 41.260000000000005 38.79 43.370000000000005 36.57 46.010000000000005 36.57 L 59.440000000000005 36.57 Z" stroke-miterlimit="10" stroke-width="3" stroke-dasharray=""/></g><g transform="matrix(1,0,0,1,0,0)"><path fill="#ffffff" stroke="#ffffff" id="_4F7018A6-05F6-4A9E-952D-A43FD1FBE330_state__6KLp__MW2h" paint-order="fill stroke markers" d=" M 0 0 M 0 59.43 C 0 56.9 2.05 54.86 4.57 54.86 L 59.34 54.86 C 61.68000000000001 54.86 63.830000000000005 56.769999999999996 63.99 59.1 C 64.18 61.78 62.07 64 59.43 64 L 4.57 64 C 2.0500000000000003 64 0 61.96 0 59.43 Z" stroke-miterlimit="10" stroke-width="3" stroke-dasharray=""/></g></g></g><g transform="matrix(1,0,0,1,85,38.5)"><text fill="#000000" stroke="none" font-family="Open Sans" font-size="12pt" font-style="normal" font-weight="normal" text-decoration="normal" x="54.38671875" y="12" text-anchor="middle" dominant-baseline="alphabetic">GreetInEnglish</text></g></g><g transform="matrix(1,0,0,1,70,736)"/><g id="_7B9916F4-7C58-432D-878B-3309970E0F3F" transform="matrix(1,0,0,1,394,736)"><g><path fill="none" stroke="none"/></g><g transform="matrix(1,0,0,1,0,0)"><path fill="#ffffff" stroke="none" id="_7B9916F4-7C58-432D-878B-3309970E0F3F?shapeType=BACKGROUND" paint-order="stroke fill markers" d=" M 5 0 L 249 0 L 249 0 A 5 5 0 0 1 254 5 L 254 87 L 254 87 A 5 5 0 0 1 249 92 L 5 92 L 5 92 A 5 5 0 0 1 0 87 L 0 5 L 0 5.000000000000001 A 5 5 0 0 1 4.999999999999999 0 Z"/></g><g transform="matrix(1,0,0,1,0,0)"><path fill="none" stroke="#d5d5d5" id="_7B9916F4-7C58-432D-878B-3309970E0F3F?shapeType=BORDER&amp;renderType=STROKE" paint-order="fill stroke markers" d=" M 10 0 L 244 0 L 244 0 A 10 10 0 0 1 254 10 L 254 82 L 254 82 A 10 10 0 0 1 244 92 L 10 92 L 10 92 A 10 10 0 0 1 0 82 L 0 10 L 0 10.000000000000002 A 10 10 0 0 1 9.999999999999998 0 Z" stroke-miterlimit="10" stroke-width="2" stroke-dasharray=""/></g><g transform="matrix(1,0,0,1,45,46)"><path fill="none" stroke="#d5d5d5" id="_7B9916F4-7C58-432D-878B-3309970E0F3F_state-inner-circle" paint-order="fill stroke markers" d=" M 25 0 A 25 25 0 1 0 24.99998750000104 0.02499999583334189 Z" stroke-miterlimit="10" stroke-width="2" stroke-dasharray=""/></g><g transform="matrix(1,0,0,1,45,46)"><path fill="#8bc1f7" stroke="none" id="_7B9916F4-7C58-432D-878B-3309970E0F3F_state-inner-circle-border" paint-order="stroke fill markers" d=" M 25 0 A 25 25 0 1 0 24.99998750000104 0.02499999583334189 Z"/></g><g><g transform="matrix(0.35,0,0,0.35,33.8,34.45)"><g transform="matrix(1,0,0,1,0,0)"><path fill="#ffffff" stroke="#ffffff" id="_7B9916F4-7C58-432D-878B-3309970E0F3F_state__6KLp__2vQB" paint-order="fill stroke markers" d=" M 0 0 M 35.02 28.49 C 35.02 28.49 34.99 28.459999999999997 34.970000000000006 28.45 L 24.680000000000007 18.16 C 22.900000000000006 16.38 20.000000000000007 16.37 18.220000000000006 18.16 C 16.430000000000007 19.95 16.440000000000005 22.84 18.220000000000006 24.62 L 21.030000000000005 27.43 L 4.57 27.43 C 2.0500000000000003 27.43 0 29.47 0 32 C 0 34.53 2.05 36.57 4.57 36.57 L 20.94 36.57 L 18.19 39.32 C 16.41 41.1 16.400000000000002 44 18.19 45.78 C 19.98 47.56 22.87 47.56 24.650000000000002 45.78 L 34.74 35.69 C 35.02 35.489999999999995 35.28 35.25 35.510000000000005 34.98 C 36.010000000000005 34.4 36.330000000000005 33.709999999999994 36.480000000000004 32.98 C 36.85 31.389999999999997 36.370000000000005 29.65 35.02 28.479999999999997 Z" stroke-miterlimit="10" stroke-width="3" stroke-dasharray=""/></g><g transform="matrix(1,0,0,1,0,0)"><path fill="#ffffff" stroke="#ffffff" id="_7B9916F4-7C58-432D-878B-3309970E0F3F_state__6KLp__dmeJ" paint-order="fill stroke markers" d=" M 0 0 M 0.01 4.23 C 0.19 1.83 2.25 0 4.66 0 L 59.43 0 C 61.96 0 64 2.05 64 4.57 C 64 7.090000000000001 61.96 9.14 59.43 9.14 L 4.57 9.14 C 1.93 9.14 -0.18 6.91 0.01 4.23 Z" stroke-miterlimit="10" stroke-width="3" stroke-dasharray=""/></g><g transform="matrix(1,0,0,1,0,0)"><path fill="#ffffff" stroke="#ffffff" id="_7B9916F4-7C58-432D-878B-3309970E0F3F_state__6KLp__HlVg" paint-order="fill stroke markers" d=" M 0 0 M 46.09 18.29 L 59.330000000000005 18.29 C 61.67 18.29 63.82000000000001 20.2 63.980000000000004 22.53 C 64.17 25.21 62.06 27.43 59.42 27.43 L 45.99 27.43 C 43.35 27.43 41.24 25.21 41.43 22.53 C 41.589999999999996 20.19 43.74 18.29 46.08 18.29 Z" stroke-miterlimit="10" stroke-width="3" stroke-dasharray=""/></g><g transform="matrix(1,0,0,1,0,0)"><path fill="#ffffff" stroke="#ffffff" id="_7B9916F4-7C58-432D-878B-3309970E0F3F_state__6KLp__eDCV" paint-order="fill stroke markers" d=" M 0 0 M 59.43 36.57 C 62.07 36.57 64.18 38.79 63.99 41.47 C 63.830000000000005 43.81 61.68 45.71 59.34 45.71 L 46.1 45.71 C 43.760000000000005 45.71 41.61 43.800000000000004 41.45 41.47 C 41.260000000000005 38.79 43.370000000000005 36.57 46.010000000000005 36.57 L 59.440000000000005 36.57 Z" stroke-miterlimit="10" stroke-width="3" stroke-dasharray=""/></g><g transform="matrix(1,0,0,1,0,0)"><path fill="#ffffff" stroke="#ffffff" id="_7B9916F4-7C58-432D-878B-3309970E0F3F_state__6KLp__MW2h" paint-order="fill stroke markers" d=" M 0 0 M 0 59.43 C 0 56.9 2.05 54.86 4.57 54.86 L 59.34 54.86 C 61.68000000000001 54.86 63.830000000000005 56.769999999999996 63.99 59.1 C 64.18 61.78 62.07 64 59.43 64 L 4.57 64 C 2.0500000000000003 64 0 61.96 0 59.43 Z" stroke-miterlimit="10" stroke-width="3" stroke-dasharray=""/></g></g></g><g transform="matrix(1,0,0,1,85,38.5)"><text fill="#000000" stroke="none" font-family="Open Sans" font-size="12pt" font-style="normal" font-weight="normal" text-decoration="normal" x="57.2734375" y="12" text-anchor="middle" dominant-baseline="alphabetic">GreetInSpanish</text></g></g><g transform="matrix(1,0,0,1,394,736)"/><g id="_75C1932F-9343-4388-9BEC-F18FC6CF0250" transform="matrix(1,0,0,1,718,736)"><g><path fill="none" stroke="none"/></g><g transform="matrix(1,0,0,1,0,0)"><path fill="#ffffff" stroke="none" id="_75C1932F-9343-4388-9BEC-F18FC6CF0250?shapeType=BACKGROUND" paint-order="stroke fill markers" d=" M 5 0 L 249 0 L 249 0 A 5 5 0 0 1 254 5 L 254 87 L 254 87 A 5 5 0 0 1 249 92 L 5 92 L 5 92 A 5 5 0 0 1 0 87 L 0 5 L 0 5.000000000000001 A 5 5 0 0 1 4.999999999999999 0 Z"/></g><g transform="matrix(1,0,0,1,0,0)"><path fill="none" stroke="#d5d5d5" id="_75C1932F-9343-4388-9BEC-F18FC6CF0250?shapeType=BORDER&amp;renderType=STROKE" paint-order="fill stroke markers" d=" M 10 0 L 244 0 L 244 0 A 10 10 0 0 1 254 10 L 254 82 L 254 82 A 10 10 0 0 1 244 92 L 10 92 L 10 92 A 10 10 0 0 1 0 82 L 0 10 L 0 10.000000000000002 A 10 10 0 0 1 9.999999999999998 0 Z" stroke-miterlimit="10" stroke-width="2" stroke-dasharray=""/></g><g transform="matrix(1,0,0,1,45,46)"><path fill="none" stroke="#d5d5d5" id="_75C1932F-9343-4388-9BEC-F18FC6CF0250_state-inner-circle" paint-order="fill stroke markers" d=" M 25 0 A 25 25 0 1 0 24.99998750000104 0.02499999583334189 Z" stroke-miterlimit="10" stroke-width="2" stroke-dasharray=""/></g><g transform="matrix(1,0,0,1,45,46)"><path fill="#8bc1f7" stroke="none" id="_75C1932F-9343-4388-9BEC-F18FC6CF0250_state-inner-circle-border" paint-order="stroke fill markers" d=" M 25 0 A 25 25 0 1 0 24.99998750000104 0.02499999583334189 Z"/></g><g><g transform="matrix(0.35,0,0,0.35,33.8,34.45)"><g transform="matrix(1,0,0,1,0,0)"><path fill="#ffffff" stroke="#ffffff" id="_75C1932F-9343-4388-9BEC-F18FC6CF0250_state__6KLp__2vQB" paint-order="fill stroke markers" d=" M 0 0 M 35.02 28.49 C 35.02 28.49 34.99 28.459999999999997 34.970000000000006 28.45 L 24.680000000000007 18.16 C 22.900000000000006 16.38 20.000000000000007 16.37 18.220000000000006 18.16 C 16.430000000000007 19.95 16.440000000000005 22.84 18.220000000000006 24.62 L 21.030000000000005 27.43 L 4.57 27.43 C 2.0500000000000003 27.43 0 29.47 0 32 C 0 34.53 2.05 36.57 4.57 36.57 L 20.94 36.57 L 18.19 39.32 C 16.41 41.1 16.400000000000002 44 18.19 45.78 C 19.98 47.56 22.87 47.56 24.650000000000002 45.78 L 34.74 35.69 C 35.02 35.489999999999995 35.28 35.25 35.510000000000005 34.98 C 36.010000000000005 34.4 36.330000000000005 33.709999999999994 36.480000000000004 32.98 C 36.85 31.389999999999997 36.370000000000005 29.65 35.02 28.479999999999997 Z" stroke-miterlimit="10" stroke-width="3" stroke-dasharray=""/></g><g transform="matrix(1,0,0,1,0,0)"><path fill="#ffffff" stroke="#ffffff" id="_75C1932F-9343-4388-9BEC-F18FC6CF0250_state__6KLp__dmeJ" paint-order="fill stroke markers" d=" M 0 0 M 0.01 4.23 C 0.19 1.83 2.25 0 4.66 0 L 59.43 0 C 61.96 0 64 2.05 64 4.57 C 64 7.090000000000001 61.96 9.14 59.43 9.14 L 4.57 9.14 C 1.93 9.14 -0.18 6.91 0.01 4.23 Z" stroke-miterlimit="10" stroke-width="3" stroke-dasharray=""/></g><g transform="matrix(1,0,0,1,0,0)"><path fill="#ffffff" stroke="#ffffff" id="_75C1932F-9343-4388-9BEC-F18FC6CF0250_state__6KLp__HlVg" paint-order="fill stroke markers" d=" M 0 0 M 46.09 18.29 L 59.330000000000005 18.29 C 61.67 18.29 63.82000000000001 20.2 63.980000000000004 22.53 C 64.17 25.21 62.06 27.43 59.42 27.43 L 45.99 27.43 C 43.35 27.43 41.24 25.21 41.43 22.53 C 41.589999999999996 20.19 43.74 18.29 46.08 18.29 Z" stroke-miterlimit="10" stroke-width="3" stroke-dasharray=""/></g><g transform="matrix(1,0,0,1,0,0)"><path fill="#ffffff" stroke="#ffffff" id="_75C1932F-9343-4388-9BEC-F18FC6CF0250_state__6KLp__eDCV" paint-order="fill stroke markers" d=" M 0 0 M 59.43 36.57 C 62.07 36.57 64.18 38.79 63.99 41.47 C 63.830000000000005 43.81 61.68 45.71 59.34 45.71 L 46.1 45.71 C 43.760000000000005 45.71 41.61 43.800000000000004 41.45 41.47 C 41.260000000000005 38.79 43.370000000000005 36.57 46.010000000000005 36.57 L 59.440000000000005 36.57 Z" stroke-miterlimit="10" stroke-width="3" stroke-dasharray=""/></g><g transform="matrix(1,0,0,1,0,0)"><path fill="#ffffff" stroke="#ffffff" id="_75C1932F-9343-4388-9BEC-F18FC6CF0250_state__6KLp__MW2h" paint-order="fill stroke markers" d=" M 0 0 M 0 59.43 C 0 56.9 2.05 54.86 4.57 54.86 L 59.34 54.86 C 61.68000000000001 54.86 63.830000000000005 56.769999999999996 63.99 59.1 C 64.18 61.78 62.07 64 59.43 64 L 4.57 64 C 2.0500000000000003 64 0 61.96 0 59.43 Z" stroke-miterlimit="10" stroke-width="3" stroke-dasharray=""/></g></g></g><g transform="matrix(1,0,0,1,85,38.5)"><text fill="#000000" stroke="none" font-family="Open Sans" font-size="12pt" font-style="normal" font-weight="normal" text-decoration="normal" x="70.60546875" y="12" text-anchor="middle" dominant-baseline="alphabetic">GreetInPortuguese</text></g></g><g transform="matrix(1,0,0,1,718,736)"/><g id="_AAE3E68A-A6BD-41D5-AF9E-0F9B09025D1A" transform="matrix(1,0,0,1,394,913)"><g><path fill="none" stroke="none"/></g><g transform="matrix(1,0,0,1,0,0)"><path fill="#ffffff" stroke="none" id="_AAE3E68A-A6BD-41D5-AF9E-0F9B09025D1A?shapeType=BACKGROUND" paint-order="stroke fill markers" d=" M 5 0 L 249 0 L 249 0 A 5 5 0 0 1 254 5 L 254 87 L 254 87 A 5 5 0 0 1 249 92 L 5 92 L 5 92 A 5 5 0 0 1 0 87 L 0 5 L 0 5.000000000000001 A 5 5 0 0 1 4.999999999999999 0 Z"/></g><g transform="matrix(1,0,0,1,0,0)"><path fill="none" stroke="#d5d5d5" id="_AAE3E68A-A6BD-41D5-AF9E-0F9B09025D1A?shapeType=BORDER&amp;renderType=STROKE" paint-order="fill stroke markers" d=" M 10 0 L 244 0 L 244 0 A 10 10 0 0 1 254 10 L 254 82 L 254 82 A 10 10 0 0 1 244 92 L 10 92 L 10 92 A 10 10 0 0 1 0 82 L 0 10 L 0 10.000000000000002 A 10 10 0 0 1 9.999999999999998 0 Z" stroke-miterlimit="10" stroke-width="2" stroke-dasharray=""/></g><g transform="matrix(1,0,0,1,45,46)"><path fill="none" stroke="#d5d5d5" id="_AAE3E68A-A6BD-41D5-AF9E-0F9B09025D1A_state-inner-circle" paint-order="fill stroke markers" d=" M 25 0 A 25 25 0 1 0 24.99998750000104 0.02499999583334189 Z" stroke-miterlimit="10" stroke-width="2" stroke-dasharray=""/></g><g transform="matrix(1,0,0,1,45,46)"><path fill="#0066cc" stroke="none" id="_AAE3E68A-A6BD-41D5-AF9E-0F9B09025D1A_state-inner-circle-border" paint-order="stroke fill markers" d=" M 25 0 A 25 25 0 1 0 24.99998750000104 0.02499999583334189 Z"/></g><g><g transform="matrix(0.35,0,0,0.35,33.8,34.45)"><g transform="matrix(1,0,0,1,0,0)"><path fill="#ffffff" stroke="#ffffff" id="_AAE3E68A-A6BD-41D5-AF9E-0F9B09025D1A_state__9lPi__EKpD" paint-order="fill stroke markers" d=" M 0 0 M 61.99 20.83 C 62.4 21.9 62.050000000000004 23.119999999999997 61.2 23.9 L 55.790000000000006 28.83 C 55.93000000000001 29.869999999999997 56.00000000000001 30.93 56.00000000000001 32 C 56.00000000000001 33.07 55.92000000000001 34.14 55.790000000000006 35.17 L 61.2 40.09 C 62.050000000000004 40.88 62.400000000000006 42.09 61.99 43.17 C 61.440000000000005 44.660000000000004 60.78 46.09 60.03 47.46 L 59.44 48.47 C 58.61 49.85 57.69 51.15 56.68 52.379999999999995 C 55.93 53.269999999999996 54.72 53.58 53.62 53.23 L 46.66 51.01 C 44.98 52.3 43.019999999999996 53.37 41.16 54.199999999999996 L 39.599999999999994 61.339999999999996 C 39.349999999999994 62.459999999999994 38.48 63.26 37.31999999999999 63.559999999999995 C 35.599999999999994 63.849999999999994 33.81999999999999 63.99999999999999 31.89999999999999 63.99999999999999 C 30.199999999999992 63.99999999999999 28.41999999999999 63.849999999999994 26.699999999999992 63.559999999999995 C 25.549999999999994 63.26 24.679999999999993 62.459999999999994 24.429999999999993 61.339999999999996 L 22.869999999999994 54.199999999999996 C 20.889999999999993 53.37 19.039999999999992 52.3 17.369999999999994 51.01 L 10.409999999999993 53.23 C 9.309999999999993 53.58 8.089999999999993 53.269999999999996 7.3499999999999925 52.379999999999995 C 6.339999999999993 51.13999999999999 5.409999999999993 49.839999999999996 4.589999999999993 48.47 L 3.999999999999993 47.46 C 3.239999999999993 46.1 2.579999999999993 44.660000000000004 2.029999999999993 43.17 C 1.6299999999999932 42.09 1.969999999999993 40.88 2.819999999999993 40.09 L 8.229999999999993 35.17 C 8.089999999999993 34.13 8.019999999999992 33.07 8.019999999999992 32 C 8.019999999999992 30.93 8.089999999999993 29.86 8.229999999999993 28.83 L 2.819999999999993 23.9 C 1.9599999999999933 23.11 1.6199999999999932 21.91 2.029999999999993 20.83 C 2.579999999999993 19.34 3.249999999999993 17.9 3.999999999999993 16.54 L 4.579999999999993 15.53 C 5.409999999999993 14.149999999999999 6.329999999999993 12.86 7.3499999999999925 11.62 C 8.089999999999993 10.729999999999999 9.309999999999992 10.42 10.409999999999993 10.77 L 17.369999999999994 12.99 C 19.039999999999992 11.7 20.889999999999993 10.620000000000001 22.869999999999994 9.81 L 24.429999999999993 2.670000000000001 C 24.679999999999993 1.540000000000001 25.549999999999994 0.6300000000000008 26.699999999999992 0.44000000000000083 C 28.429999999999993 0.15000000000000085 30.199999999999992 8.326672684688674e-16 32.00999999999999 8.326672684688674e-16 C 33.81999999999999 8.326672684688674e-16 35.599999999999994 0.15000000000000083 37.31999999999999 0.44000000000000083 C 38.46999999999999 0.6300000000000008 39.349999999999994 1.530000000000001 39.599999999999994 2.670000000000001 L 41.16 9.81 C 43.019999999999996 10.63 44.98 11.700000000000001 46.66 12.99 L 53.62 10.77 C 54.72 10.42 55.93 10.73 56.68 11.62 C 57.69 12.85 58.62 14.149999999999999 59.44 15.53 L 60.03 16.54 C 60.78 17.9 61.44 19.34 61.99 20.83 L 61.99 20.83 Z M 0 0 M 32 42 C 37.53 42 42 37.53 42 31.89 C 42 26.25 37.53 21.89 32 21.89 C 26.47 21.89 22 26.48 22 31.89 C 22 37.3 26.48 42 32 42 Z" stroke-miterlimit="10" stroke-width="3" stroke-dasharray=""/></g></g></g><g transform="matrix(1,0,0,1,85,38.5)"><text fill="#000000" stroke="none" font-family="Open Sans" font-size="12pt" font-style="normal" font-weight="normal" text-decoration="normal" x="46.859375" y="12" text-anchor="middle" dominant-baseline="alphabetic">GreetPerson</text></g></g><g transform="matrix(1,0,0,1,394,913)"/><g id="startEdge"><g><path fill="none" stroke="#757575" paint-order="fill stroke markers" d=" M 380.16666666666674 100 L 380.1666666666667 170" stroke-miterlimit="10" stroke-width="1.5" stroke-dasharray=""/></g><g transform="matrix(1,0,0,1,380.16666666666674,100)"/><g transform="matrix(-1,1.2246467991473532e-16,-1.2246467991473532e-16,-1,385.1666666666667,185)"><path fill="#757575" stroke="#757575" paint-order="fill stroke markers" d=" M 10 15 L 0 15 L 5 0 Z" stroke-miterlimit="10" stroke-width="1.5" stroke-dasharray=""/></g><g transform="matrix(1,0,0,1,390.1666666666667,142.5)"/></g><g id="_1EE18FF9-6F72-4F70-A251-B93158971DB0"><g><path fill="none" stroke="#757575" paint-order="fill stroke markers" d=" M 380.1666666666667 277 L 380.1666666666667 347" stroke-miterlimit="10" stroke-width="1.5" stroke-dasharray=""/></g><g transform="matrix(1,0,0,1,380.1666666666667,277)"/><g transform="matrix(-1,1.2246467991473532e-16,-1.2246467991473532e-16,-1,385.1666666666667,362)"><path fill="#757575" stroke="#757575" paint-order="fill stroke markers" d=" M 10 15 L 0 15 L 5 0 Z" stroke-miterlimit="10" stroke-width="1.5" stroke-dasharray=""/></g><g transform="matrix(1,0,0,1,390.1666666666667,319.5)"/></g><g id="_B1C35C33-DF8A-4F6D-96E6-E5F8DACE2C90"><g><path fill="none" stroke="#757575" paint-order="fill stroke markers" d=" M 380.1666666666667 454 L 380.1666666666667 524" stroke-miterlimit="10" stroke-width="1.5" stroke-dasharray=""/></g><g transform="matrix(1,0,0,1,380.1666666666667,454)"/><g transform="matrix(-1,1.2246467991473532e-16,-1.2246467991473532e-16,-1,385.1666666666667,539)"><path fill="#757575" stroke="#757575" paint-order="fill stroke markers" d=" M 10 15 L 0 15 L 5 0 Z" stroke-miterlimit="10" stroke-width="1.5" stroke-dasharray=""/></g><g transform="matrix(1,0,0,1,390.1666666666667,496.5)"/></g><g id="_E05A729E-2A82-4EBF-8CCF-26493A56618A"><g><path fill="none" stroke="#3e8635" paint-order="fill stroke markers" d=" M 336.8925925925926 631 L 303.9666666666667 666 L 154.66666666666674 666 L 175.0702454989156 721.9090191623828" stroke-miterlimit="10" stroke-width="1.5" stroke-dasharray=""/></g><g transform="matrix(1,0,0,1,336.8925925925926,631)"/><g transform="matrix(-0.9393987225078113,0.3428265452830223,-0.3428265452830223,-0.9393987225078113,184.90963729069998,734.2858672735849)"><path fill="#3e8635" stroke="#3e8635" paint-order="fill stroke markers" d=" M 10 15 L 0 15 L 5 0 Z" stroke-miterlimit="10" stroke-width="1.5" stroke-dasharray=""/></g><g transform="matrix(1,0,0,1,311.2502503248973,641.6480361141089)"/></g><g id="_9010C09F-2864-4F76-9F0D-D49C642F9BE4"><g><path fill="none" stroke="#757575" paint-order="fill stroke markers" d=" M 197 828 L 197 863 L 457.5 863 L 482.2975789394178 900.4892531997498" stroke-miterlimit="10" stroke-width="1.5" stroke-dasharray=""/></g><g transform="matrix(1,0,0,1,197,828)"/><g transform="matrix(-0.8340497866833483,0.5516891818165925,-0.5516891818165925,-0.8340497866833483,494.74316560008344,910.241554090917)"><path fill="#757575" stroke="#757575" paint-order="fill stroke markers" d=" M 10 15 L 0 15 L 5 0 Z" stroke-miterlimit="10" stroke-width="1.5" stroke-dasharray=""/></g><g transform="matrix(1,0,0,1,207,845.5)"/></g><g id="_BA0A84CE-A488-4EEF-A4B0-F52A539FDA54"><g><path fill="none" stroke="#757575" paint-order="fill stroke markers" d=" M 521 1005 L 521 1075" stroke-miterlimit="10" stroke-width="1.5" stroke-dasharray=""/></g><g transform="matrix(1,0,0,1,521,1005)"/><g transform="matrix(-1,1.2246467991473532e-16,-1.2246467991473532e-16,-1,526,1090)"><path fill="#757575" stroke="#757575" paint-order="fill stroke markers" d=" M 10 15 L 0 15 L 5 0 Z" stroke-miterlimit="10" stroke-width="1.5" stroke-dasharray=""/></g><g transform="matrix(1,0,0,1,531,1047.5)"/></g><g id="_E00409CA-3DF6-44B6-A964-588FE48C8DEC"><g><path fill="none" stroke="#757575" paint-order="fill stroke markers" d=" M 370.0942528735632 631 L 354.76666666666665 701 L 239.33333333333337 701 L 227.98898886368917 722.7061079222326" stroke-miterlimit="10" stroke-width="1.5" stroke-dasharray=""/></g><g transform="matrix(1,0,0,1,370.0942528735632,631)"/><g transform="matrix(-0.8862594718511618,-0.46318910668764623,0.46318910668764623,-0.8862594718511618,225.4724496226303,738.3159455334383)"><path fill="#757575" stroke="#757575" paint-order="fill stroke markers" d=" M 10 15 L 0 15 L 5 0 Z" stroke-miterlimit="10" stroke-width="1.5" stroke-dasharray=""/></g><g transform="matrix(1,0,0,1,364.53522713199254,663.8610221050062)"/></g><g id="_6693B377-E2B0-4D00-AFB8-7B578B4BD5B2"><g><path fill="none" stroke="#757575" paint-order="fill stroke markers" d=" M 390.23908045977015 631 L 405.5666666666667 701 L 521 701 L 521 721" stroke-miterlimit="10" stroke-width="1.5" stroke-dasharray=""/></g><g transform="matrix(1,0,0,1,390.23908045977015,631)"/><g transform="matrix(-1,1.2246467991473532e-16,-1.2246467991473532e-16,-1,526,736)"><path fill="#757575" stroke="#757575" paint-order="fill stroke markers" d=" M 10 15 L 0 15 L 5 0 Z" stroke-miterlimit="10" stroke-width="1.5" stroke-dasharray=""/></g><g transform="matrix(1,0,0,1,400.00764092509604,663.8610221050062)"/></g><g id="_C8CF0023-07BE-40FA-9F27-9DB40EB9FD84"><g><path fill="none" stroke="#757575" paint-order="fill stroke markers" d=" M 521 828 L 521 898" stroke-miterlimit="10" stroke-width="1.5" stroke-dasharray=""/></g><g transform="matrix(1,0,0,1,521,828)"/><g transform="matrix(-1,1.2246467991473532e-16,-1.2246467991473532e-16,-1,526,913)"><path fill="#757575" stroke="#757575" paint-order="fill stroke markers" d=" M 10 15 L 0 15 L 5 0 Z" stroke-miterlimit="10" stroke-width="1.5" stroke-dasharray=""/></g><g transform="matrix(1,0,0,1,531,870.5)"/></g><g id="_25090530-1A01-4224-AD9A-08F1884D9498"><g><path fill="none" stroke="#757575" paint-order="fill stroke markers" d=" M 423.44074074074075 631 L 456.3666666666667 666 L 845 666 L 845 721" stroke-miterlimit="10" stroke-width="1.5" stroke-dasharray=""/></g><g transform="matrix(1,0,0,1,423.44074074074075,631)"/><g transform="matrix(-1,1.2246467991473532e-16,-1.2246467991473532e-16,-1,850,736)"><path fill="#757575" stroke="#757575" paint-order="fill stroke markers" d=" M 10 15 L 0 15 L 5 0 Z" stroke-miterlimit="10" stroke-width="1.5" stroke-dasharray=""/></g><g transform="matrix(1,0,0,1,430.7243243989715,641.6480361141089)"/></g><g id="_043DF920-7A35-46D5-A392-E979159D39D7"><g><path fill="none" stroke="#757575" paint-order="fill stroke markers" d=" M 845 828 L 845 863 L 584.5 863 L 559.7024210605822 900.4892531997498" stroke-miterlimit="10" stroke-width="1.5" stroke-dasharray=""/></g><g transform="matrix(1,0,0,1,845,828)"/><g transform="matrix(-0.8340497866833502,-0.5516891818165897,0.5516891818165897,-0.8340497866833502,555.5973322667501,915.758445909083)"><path fill="#757575" stroke="#757575" paint-order="fill stroke markers" d=" M 10 15 L 0 15 L 5 0 Z" stroke-miterlimit="10" stroke-width="1.5" stroke-dasharray=""/></g><g transform="matrix(1,0,0,1,855,845.5)"/></g></g></g></svg>